<svg width="68" height="49" viewBox="0 0 68 49" fill="none" xmlns="http://www.w3.org/2000/svg">
<rect x="0.5" y="0.5" width="67" height="48" rx="3.5" fill="#006FCF" stroke="#F3F3F3"/>
<path fill-rule="evenodd" clip-rule="evenodd" d="M13.9085 35.395V25.3077H24.8397L26.0125 26.8015L27.2241 25.3077H66.9016V34.6993C66.9016 34.6993 65.864 35.3849 64.6639 35.395H42.6937L41.3714 33.8049V35.395H37.0384V32.6806C37.0384 32.6806 36.4465 33.0595 35.1668 33.0595H33.692V35.395H27.1314L25.9603 33.8691L24.7712 35.395H13.9085ZM1.17236 17.7049L3.6318 12.0898H7.88514L9.2809 15.2352V12.0898H14.5682L15.3991 14.3632L16.2046 12.0898H39.9391V13.2327C39.9391 13.2327 41.1868 12.0898 43.2373 12.0898L50.9382 12.1162L52.3099 15.2204V12.0898H56.7346L57.9524 13.8729V12.0898H62.4177V22.1771H57.9524L56.7853 20.3883V22.1771H50.2845L49.6307 20.587H47.8831L47.24 22.1771H42.8313C41.0669 22.1771 39.9391 21.0576 39.9391 21.0576V22.1771H33.2919L31.9726 20.587V22.1771H7.25503L6.60173 20.587H4.85966L4.21098 22.1771H1.17236V17.7049ZM1.18561 20.8864L4.50286 13.3334H7.01774L10.3318 20.8864H8.12455L7.51565 19.374H3.95738L3.34531 20.8864H1.18561ZM6.81421 17.7342L5.72961 15.0912L4.64183 17.7342H6.81421ZM10.5596 20.8852V13.3321L13.6286 13.3433L15.4137 18.213L17.156 13.3321H20.2005V20.8852H18.2723V15.3198L16.2284 20.8852H14.5374L12.4878 15.3198V20.8852H10.5596ZM21.5198 20.8852V13.3321H27.8118V15.0216H23.4683V16.3136H27.7103V17.9037H23.4683V19.2454H27.8118V20.8852H21.5198ZM28.9281 20.8864V13.3334H33.219C34.6407 13.3334 35.9146 14.1944 35.9146 15.7838C35.9146 17.1425 34.8405 18.0177 33.7993 18.1037L36.3364 20.8864H33.9801L31.6682 18.2031H30.8563V20.8864H28.9281ZM33.0604 15.0229H30.8563V16.613H33.0889C33.4754 16.613 33.9737 16.3197 33.9737 15.8179C33.9737 15.4279 33.5891 15.0229 33.0604 15.0229ZM38.6705 20.8852H36.7017V13.3321H38.6705V20.8852ZM43.3388 20.8852H42.9138C40.8576 20.8852 39.6092 19.2988 39.6092 17.1397C39.6092 14.9273 40.8437 13.3321 43.4402 13.3321H45.5714V15.121H43.3623C42.3083 15.121 41.5628 15.9266 41.5628 17.1583C41.5628 18.6211 42.4152 19.2354 43.6432 19.2354H44.1506L43.3388 20.8852ZM44.2172 20.8864L47.5345 13.3334H50.0494L53.3634 20.8864H51.1562L50.5473 19.374H46.989L46.3769 20.8864H44.2172ZM49.8464 17.7342L48.7618 15.0912L47.674 17.7342H49.8464ZM53.5886 20.8852V13.3321H56.0401L59.1702 18.0776V13.3321H61.0984V20.8852H58.7262L55.5168 16.0154V20.8852H53.5886ZM15.2278 34.103V26.55H21.5198V28.2395H17.1763V29.5314H21.4183V31.1215H17.1763V32.4632H21.5198V34.103H15.2278ZM46.0585 34.103V26.55H52.3505V28.2395H48.007V29.5314H52.2287V31.1215H48.007V32.4632H52.3505V34.103H46.0585ZM21.764 34.103L24.8275 30.3731L21.6911 26.55H24.1203L25.9882 28.9134L27.8625 26.55H30.1966L27.1014 30.3265L30.1706 34.103H27.7417L25.928 31.7768L24.1584 34.103H21.764ZM30.3996 34.1043V26.5512H34.6587C36.4064 26.5512 37.4273 27.6543 37.4273 29.0917C37.4273 30.8269 36.1256 31.7191 34.4082 31.7191H32.3785V34.1043H30.3996ZM34.516 28.2594H32.3785V29.9985H34.5097C35.0729 29.9985 35.4674 29.633 35.4674 29.129C35.4674 28.5924 35.0709 28.2594 34.516 28.2594ZM38.2646 34.103V26.55H42.5554C43.9772 26.55 45.2511 27.4109 45.2511 29.0003C45.2511 30.3591 44.177 31.2342 43.1358 31.3203L45.6729 34.103H43.3166L41.0046 31.4197H40.1928V34.103H38.2646ZM42.3969 28.2395H40.1928V29.8296H42.4254C42.8119 29.8296 43.3102 29.5363 43.3102 29.0345C43.3102 28.6445 42.9256 28.2395 42.3969 28.2395ZM53.2436 34.103V32.4632H57.1025C57.6735 32.4632 57.9207 32.161 57.9207 31.8296C57.9207 31.5121 57.6742 31.1911 57.1025 31.1911H55.3587C53.8429 31.1911 52.9987 30.2867 52.9987 28.9289C52.9987 27.7179 53.7718 26.55 56.0242 26.55H59.7791L58.9672 28.2494H55.7198C55.099 28.2494 54.9079 28.5684 54.9079 28.873C54.9079 29.1861 55.144 29.5314 55.6183 29.5314H57.445C59.1347 29.5314 59.8679 30.47 59.8679 31.6992C59.8679 33.0207 59.0509 34.103 57.353 34.103H53.2436ZM60.0379 34.103V32.4632H63.8968C64.4678 32.4632 64.715 32.161 64.715 31.8296C64.715 31.5121 64.4686 31.1911 63.8968 31.1911H62.153C60.6372 31.1911 59.7931 30.2867 59.7931 28.9289C59.7931 27.7179 60.5661 26.55 62.8185 26.55H66.5734L65.7616 28.2494H62.5141C61.8933 28.2494 61.7022 28.5684 61.7022 28.873C61.7022 29.1861 61.9384 29.5314 62.4126 29.5314H64.2393C65.929 29.5314 66.6622 30.47 66.6622 31.6992C66.6622 33.0207 65.8452 34.103 64.1473 34.103H60.0379Z" fill="white"/>
</svg>
