<svg width="68" height="49" viewBox="0 0 68 49" fill="none" xmlns="http://www.w3.org/2000/svg">
<rect x="0.5" y="0.5" width="67" height="48" rx="3.5" fill="white" stroke="#F3F3F3"/>
<path fill-rule="evenodd" clip-rule="evenodd" d="M20.6076 18.2848C20.113 18.9031 19.3216 19.3908 18.5302 19.3211C18.4313 18.4851 18.8187 17.5968 19.2721 17.0482C19.7668 16.4125 20.6323 15.9596 21.333 15.9248C21.4155 16.7957 21.094 17.6491 20.6076 18.2848ZM21.3248 19.4866C20.6276 19.4442 19.9914 19.7081 19.4776 19.9212C19.1469 20.0584 18.8669 20.1746 18.6539 20.1746C18.4148 20.1746 18.1232 20.0522 17.7959 19.9148C17.3669 19.7348 16.8765 19.529 16.3622 19.5388C15.1834 19.5563 14.087 20.2617 13.4852 21.3851C12.2487 23.6319 13.1637 26.9585 14.359 28.7873C14.9443 29.693 15.645 30.6858 16.5683 30.6509C16.9745 30.6347 17.2666 30.5038 17.569 30.3682C17.9172 30.2122 18.2788 30.05 18.8435 30.05C19.3886 30.05 19.7344 30.2079 20.0664 30.3595C20.3821 30.5036 20.6852 30.642 21.1352 30.6335C22.0914 30.6161 22.6932 29.7278 23.2785 28.8221C23.9101 27.8501 24.1877 26.9014 24.2298 26.7574L24.2348 26.7408C24.2337 26.7397 24.2259 26.736 24.2122 26.7293C24.001 26.6272 22.3872 25.8467 22.3717 23.7538C22.3562 21.9971 23.6518 21.107 23.8557 20.9669L23.8557 20.9669L23.8558 20.9669L23.8559 20.9668C23.8682 20.9583 23.8765 20.9526 23.8803 20.9496C23.0559 19.6608 21.7699 19.5214 21.3248 19.4866ZM27.9443 30.5377V16.9611H32.7668C35.2564 16.9611 36.9957 18.7725 36.9957 21.4199C36.9957 24.0673 35.2234 25.8961 32.7009 25.8961H29.9393V30.5377H27.9443ZM29.9393 18.7377H32.2392C33.9704 18.7377 34.9596 19.713 34.9596 21.4286C34.9596 23.1442 33.9704 24.1282 32.231 24.1282H29.9393V18.7377ZM43.5823 28.9092C43.0547 29.9717 41.8924 30.6422 40.6394 30.6422C38.7846 30.6422 37.4904 29.4753 37.4904 27.7162C37.4904 25.9744 38.7434 24.973 41.0598 24.8249L43.5494 24.6682V23.9192C43.5494 22.8132 42.8651 22.2124 41.6451 22.2124C40.6394 22.2124 39.9057 22.761 39.7573 23.597H37.9602C38.0179 21.8379 39.5842 20.5577 41.7028 20.5577C43.9863 20.5577 45.4701 21.8205 45.4701 23.7799V30.5377H43.6235V28.9092H43.5823ZM41.1752 29.0311C40.1118 29.0311 39.4358 28.4912 39.4358 27.6639C39.4358 26.8105 40.0871 26.3141 41.3318 26.2357L43.5494 26.0877V26.854C43.5494 28.1255 42.5272 29.0311 41.1752 29.0311ZM51.595 31.0689C50.7954 33.4464 49.8804 34.2301 47.9349 34.2301C47.7865 34.2301 47.2919 34.2127 47.1765 34.1779V32.5494C47.3002 32.5668 47.6052 32.5842 47.7618 32.5842C48.6439 32.5842 49.1385 32.1923 49.4435 31.1734L49.6248 30.5726L46.245 20.6884H48.3306L50.68 28.7089H50.7212L53.0706 20.6884H55.0985L51.595 31.0689Z" fill="black"/>
</svg>
