<svg width="68" height="49" viewBox="0 0 68 49" fill="none" xmlns="http://www.w3.org/2000/svg">
<rect x="0.5" y="0.5" width="67" height="48" rx="3.5" fill="white" stroke="#F3F3F3"/>
<path d="M44.9451 26.6353L47.5769 19.7993H49.6365L45.4285 30.2378H44.406L40.2722 19.7993H42.3484L44.9451 26.6353ZM18.5603 19.6304C19.6283 19.6304 20.6056 20.0126 21.4226 20.7593L20.4285 22.1187C19.9336 21.5392 19.4652 21.2944 18.8962 21.2944C18.0773 21.2944 17.4812 21.7824 17.4812 22.4233C17.4813 22.9732 17.8157 23.2639 18.9558 23.7046C21.1168 24.5306 21.7575 25.2624 21.7576 26.8794C21.7576 28.8493 20.3723 30.2211 18.3982 30.2212C16.9523 30.2212 15.9005 29.6265 15.0251 28.2837L16.2527 27.0483C16.69 27.9323 17.4207 28.4067 18.3269 28.4067C19.1744 28.4065 19.8014 27.7955 19.8015 26.9712C19.8015 26.5438 19.6118 26.1766 19.2322 25.9175C19.0414 25.7948 18.6625 25.6128 17.9187 25.3384C16.1343 24.6676 15.5224 23.9492 15.5222 22.5474C15.5222 20.8817 16.8367 19.6304 18.5603 19.6304ZM27.5427 19.5688C28.3605 19.5688 29.0467 19.7519 29.8806 20.1938V22.5298C29.0907 21.7225 28.404 21.3843 27.4978 21.3843C25.7157 21.3845 24.3152 22.9267 24.3152 24.8804C24.3154 26.9413 25.6732 28.3911 27.5867 28.3911C28.4481 28.3911 29.1212 28.0702 29.8806 27.2759V29.6128C29.0169 30.0379 28.3156 30.2056 27.4978 30.2056C24.6048 30.2054 22.3572 27.8864 22.3572 24.895C22.3572 21.9358 24.6643 19.569 27.5427 19.5688ZM14.3093 29.9771H12.4099V19.7993H14.3093V29.9771ZM55.8835 21.5229H52.3943V23.7827H55.7556V25.5063H52.3943V28.2534H55.8835V29.9771H50.4958V19.7983H55.8835V21.5229ZM6.3064 19.7993C9.38774 19.7994 11.5359 21.8913 11.5359 24.895C11.5359 26.3926 10.8784 27.8407 9.76733 28.8013C8.83218 29.6128 7.76691 29.9761 6.29175 29.9761H3.51733V19.7993H6.3064ZM59.9597 19.7983C62.1506 19.7983 63.4068 20.898 63.407 22.8032C63.407 24.3615 62.6184 25.385 61.1873 25.689L64.2546 29.9761H61.9177L59.2878 25.8882H59.0398V29.9761H57.1423V19.7983H59.9597ZM5.41577 28.2534H5.92554C7.15313 28.2534 7.92926 28.0083 8.52612 27.4448C9.18313 26.8338 9.57781 25.8574 9.57788 24.8804C9.57788 23.9056 9.1832 22.9572 8.52612 22.3462C7.8988 21.7525 7.15305 21.5229 5.92554 21.5229H5.41577V28.2534ZM59.0398 21.4019V24.4849H59.5955C60.8089 24.4848 61.4519 23.9336 61.4519 22.9106C61.4519 21.9201 60.8083 21.4019 59.6248 21.4019H59.0398Z" fill="#1D1D1B"/>
<path fill-rule="evenodd" clip-rule="evenodd" d="M40.0479 27.8404C41.59 25.3209 40.8857 21.9737 38.4746 20.3625C36.0635 18.7514 32.8594 19.4869 31.3172 22.0065C29.7754 24.5254 30.48 27.8737 32.8911 29.4848C35.3022 31.0959 38.5061 30.3593 40.0479 27.8404Z" fill="url(#paint0_linear_1247_13039)"/>
<defs>
<linearGradient id="paint0_linear_1247_13039" x1="42.8396" y1="23.2793" x2="33.8907" y2="17.8019" gradientUnits="userSpaceOnUse">
<stop stop-color="#F6A000"/>
<stop offset="0.623918" stop-color="#E47E02"/>
<stop offset="1" stop-color="#D36002"/>
</linearGradient>
</defs>
</svg>
