<svg width="68" height="49" viewBox="0 0 68 49" fill="none" xmlns="http://www.w3.org/2000/svg">
<rect x="0.5" y="0.5" width="67" height="48" rx="3.5" fill="white" stroke="#F3F3F3"/>
<path d="M47.1124 7.6626C44.1884 7.6626 41.7907 10.1343 41.7907 13.2163V18.9837H49.3054C49.4808 18.9837 49.6855 18.9837 49.8317 19.0142C51.5276 19.1058 52.7849 20.0212 52.7849 21.608C52.7849 22.8591 51.937 23.9271 50.358 24.1407V24.2018C52.0832 24.3238 53.399 25.3308 53.399 26.8871C53.399 28.5654 51.937 29.664 50.0071 29.664H41.7615V40.9546H49.5686C52.4925 40.9546 54.8902 38.4828 54.8902 35.4008V7.6626H47.1124Z" fill="url(#paint0_linear_1247_13040)"/>
<path d="M44.3933 27.8941H47.4635C47.5073 27.8941 47.5804 27.8865 47.6535 27.8789C47.7266 27.8712 47.7997 27.8636 47.8436 27.8636C48.4284 27.7415 48.9255 27.1923 48.9255 26.4294C48.9255 25.697 48.4284 25.1478 47.8436 24.9952C47.7559 24.9647 47.5804 24.9647 47.4635 24.9647H44.3933V27.8941Z" fill="url(#paint1_linear_1247_13040)"/>
<path d="M47.4635 20.6621C48.0483 20.7536 48.5454 21.2418 48.5454 21.9742C48.5454 22.7066 48.0483 23.1948 47.4635 23.2864C47.4342 23.3169 47.2588 23.3169 47.1711 23.3169H44.3933V20.6315H47.1711C47.2194 20.6315 47.2854 20.6408 47.3447 20.6491C47.3932 20.6559 47.4372 20.6621 47.4635 20.6621Z" fill="url(#paint2_linear_1247_13040)"/>
<path d="M17.6969 7.6626C14.7729 7.6626 12.3752 10.1343 12.3752 13.2163V26.9176C13.8664 27.6805 15.4161 28.1687 16.9659 28.1687C18.808 28.1687 19.8021 27.0092 19.8021 25.4224V18.9532H24.3636V25.3919C24.3636 27.8941 22.8723 29.9386 17.8138 29.9386C14.7436 29.9386 12.3459 29.2368 12.3459 29.2368V40.924H20.153C23.077 40.924 25.4747 38.4523 25.4747 35.3703V7.6626H17.6969Z" fill="url(#paint3_linear_1247_13040)"/>
<path d="M32.4044 7.6626C29.4804 7.6626 27.0828 10.1343 27.0828 13.2163V20.4789C28.4278 19.2888 30.767 18.526 34.539 18.7091C36.5565 18.8006 38.7203 19.3804 38.7203 19.3804V21.7301C37.6384 21.1503 36.3518 20.6315 34.6852 20.5094C31.8196 20.2958 30.0945 21.7606 30.0945 24.3238C30.0945 26.9176 31.8196 28.3823 34.6852 28.1382C36.3518 28.0162 37.6384 27.4669 38.7203 26.9176V29.2673C38.7203 29.2673 36.5858 29.8471 34.539 29.9386C30.767 30.1217 28.4278 29.3588 27.0828 28.1687V40.9851H34.8898C37.8138 40.9851 40.2115 38.5134 40.2115 35.4313V7.6626H32.4044Z" fill="url(#paint4_linear_1247_13040)"/>
<defs>
<linearGradient id="paint0_linear_1247_13040" x1="41.7857" y1="21.9704" x2="54.9259" y2="21.9704" gradientUnits="userSpaceOnUse">
<stop stop-color="#007940"/>
<stop offset="0.2285" stop-color="#00873F"/>
<stop offset="0.7433" stop-color="#40A737"/>
<stop offset="1" stop-color="#5CB531"/>
</linearGradient>
<linearGradient id="paint1_linear_1247_13040" x1="41.7857" y1="21.9704" x2="54.9259" y2="21.9704" gradientUnits="userSpaceOnUse">
<stop stop-color="#007940"/>
<stop offset="0.2285" stop-color="#00873F"/>
<stop offset="0.7433" stop-color="#40A737"/>
<stop offset="1" stop-color="#5CB531"/>
</linearGradient>
<linearGradient id="paint2_linear_1247_13040" x1="41.7857" y1="21.9704" x2="54.9259" y2="21.9704" gradientUnits="userSpaceOnUse">
<stop stop-color="#007940"/>
<stop offset="0.2285" stop-color="#00873F"/>
<stop offset="0.7433" stop-color="#40A737"/>
<stop offset="1" stop-color="#5CB531"/>
</linearGradient>
<linearGradient id="paint3_linear_1247_13040" x1="12.369" y1="24.2953" x2="25.7121" y2="24.2953" gradientUnits="userSpaceOnUse">
<stop stop-color="#1F286F"/>
<stop offset="0.4751" stop-color="#004E94"/>
<stop offset="0.8261" stop-color="#0066B1"/>
<stop offset="1" stop-color="#006FBC"/>
</linearGradient>
<linearGradient id="paint4_linear_1247_13040" x1="27.0072" y1="24.2953" x2="39.9664" y2="24.2953" gradientUnits="userSpaceOnUse">
<stop stop-color="#6C2C2F"/>
<stop offset="0.1735" stop-color="#882730"/>
<stop offset="0.5731" stop-color="#BE1833"/>
<stop offset="0.8585" stop-color="#DC0436"/>
<stop offset="1" stop-color="#E60039"/>
</linearGradient>
</defs>
</svg>
