<svg width="70" height="49" viewBox="0 0 70 49" fill="none" xmlns="http://www.w3.org/2000/svg">
<rect x="0.5" y="0.5" width="69" height="48" rx="3.5" fill="white" stroke="#F3F3F3"/>
<path fill-rule="evenodd" clip-rule="evenodd" d="M25.6454 37.841V39.6502V41.4593H24.8642V41.02C24.6164 41.3458 24.2405 41.5503 23.7294 41.5503C22.7219 41.5503 21.9321 40.7558 21.9321 39.6502C21.9321 38.5454 22.7219 37.75 23.7294 37.75C24.2405 37.75 24.6164 37.9545 24.8642 38.2803V37.841H25.6454ZM23.8266 38.4917C23.1504 38.4917 22.7365 39.0142 22.7365 39.6501C22.7365 40.2861 23.1504 40.8086 23.8266 40.8086C24.4728 40.8086 24.909 40.3087 24.909 39.6501C24.909 38.9916 24.4728 38.4917 23.8266 38.4917ZM52.045 39.6501C52.045 39.0142 52.4588 38.4917 53.1351 38.4917C53.782 38.4917 54.2174 38.9916 54.2174 39.6501C54.2174 40.3087 53.782 40.8086 53.1351 40.8086C52.4588 40.8086 52.045 40.2861 52.045 39.6501ZM54.9547 36.3879V39.6502V41.4593H54.1727V41.02C53.9249 41.3458 53.5489 41.5503 53.0378 41.5503C52.0303 41.5503 51.2405 40.7558 51.2405 39.6502C51.2405 38.5454 52.0303 37.75 53.0378 37.75C53.5489 37.75 53.9249 37.9545 54.1727 38.2803V36.3879H54.9547ZM35.3426 38.4544C35.846 38.4544 36.1695 38.7724 36.2521 39.3322H34.3876C34.4711 38.8097 34.786 38.4544 35.3426 38.4544ZM33.5685 39.6502C33.5685 38.522 34.305 37.75 35.3581 37.75C36.3647 37.75 37.0565 38.522 37.0642 39.6502C37.0642 39.7559 37.0565 39.8546 37.0487 39.9525H34.3807C34.4934 40.6041 34.952 40.8389 35.4553 40.8389C35.8158 40.8389 36.1996 40.702 36.5007 40.4603L36.8835 41.0434C36.4473 41.4143 35.9518 41.5503 35.4106 41.5503C34.3351 41.5503 33.5685 40.8008 33.5685 39.6502ZM44.7912 39.6501C44.7912 39.0142 45.205 38.4917 45.8813 38.4917C46.5274 38.4917 46.9636 38.9916 46.9636 39.6501C46.9636 40.3087 46.5274 40.8086 45.8813 40.8086C45.205 40.8086 44.7912 40.2861 44.7912 39.6501ZM47.7001 37.841V39.6502V41.4593H46.9189V41.02C46.6703 41.3458 46.2951 41.5503 45.7841 41.5503C44.7766 41.5503 43.9868 40.7558 43.9868 39.6502C43.9868 38.5454 44.7766 37.75 45.7841 37.75C46.2951 37.75 46.6703 37.9545 46.9189 38.2803V37.841H47.7001ZM40.3792 39.6502C40.3792 40.748 41.138 41.5503 42.2961 41.5503C42.8373 41.5503 43.1978 41.429 43.5884 41.1188L43.2132 40.4828C42.9199 40.6951 42.6118 40.8086 42.2729 40.8086C41.6491 40.8008 41.1905 40.3468 41.1905 39.6502C41.1905 38.9535 41.6491 38.4995 42.2729 38.4917C42.6118 38.4917 42.9199 38.6052 43.2132 38.8175L43.5884 38.1815C43.1978 37.8713 42.8373 37.75 42.2961 37.75C41.138 37.75 40.3792 38.5523 40.3792 39.6502ZM49.5042 38.2803C49.7072 37.9623 50.0006 37.75 50.4514 37.75C50.6097 37.75 50.8352 37.7803 51.0081 37.8488L50.7672 38.5905C50.602 38.522 50.4368 38.4995 50.2785 38.4995C49.7674 38.4995 49.5119 38.8322 49.5119 39.4309V41.4593H48.7298V37.841H49.5042V38.2803ZM29.5093 38.1287C29.1333 37.8791 28.6154 37.75 28.0441 37.75C27.1338 37.75 26.5479 38.1893 26.5479 38.9085C26.5479 39.4985 26.9841 39.8624 27.7877 39.9759L28.1568 40.0288C28.5853 40.0894 28.7874 40.203 28.7874 40.4074C28.7874 40.6873 28.5018 40.8467 27.9684 40.8467C27.4272 40.8467 27.0366 40.6726 26.7733 40.4681L26.4051 41.0807C26.8335 41.3987 27.3747 41.5503 27.9606 41.5503C28.9982 41.5503 29.5996 41.0581 29.5996 40.3693C29.5996 39.7333 29.1264 39.4006 28.3443 39.2871L27.9761 39.2334C27.638 39.1883 27.367 39.1207 27.367 38.8781C27.367 38.613 27.6225 38.4544 28.051 38.4544C28.5095 38.4544 28.9535 38.6286 29.1712 38.7646L29.5093 38.1287ZM38.643 38.2803C38.8452 37.9623 39.1386 37.75 39.5894 37.75C39.7477 37.75 39.9731 37.7803 40.1461 37.8488L39.9052 38.5905C39.74 38.522 39.5748 38.4995 39.4165 38.4995C38.9054 38.4995 38.6499 38.8322 38.6499 39.4309V41.4593H37.8687V37.841H38.643V38.2803ZM32.9223 37.841H31.6446V36.7432H30.8548V37.841H30.1261V38.5601H30.8548V40.2107C30.8548 41.0503 31.1783 41.5503 32.1024 41.5503C32.4413 41.5503 32.832 41.4446 33.0797 41.2704L32.8543 40.5963C32.6212 40.7324 32.3656 40.8008 32.1626 40.8008C31.772 40.8008 31.6446 40.5582 31.6446 40.1952V38.5601H32.9223V37.841ZM21.2412 39.1883V41.4593H20.4514V39.4457C20.4514 38.8322 20.1958 38.4917 19.6624 38.4917C19.1436 38.4917 18.7831 38.8253 18.7831 39.4535V41.4593H17.9933V39.4457C17.9933 38.8322 17.7309 38.4917 17.2121 38.4917C16.6778 38.4917 16.3319 38.8253 16.3319 39.4535V41.4593H15.543V37.841H16.325V38.2872C16.6184 37.8635 16.9935 37.75 17.3773 37.75C17.9262 37.75 18.3168 37.9926 18.5646 38.3938C18.8958 37.886 19.369 37.7422 19.8276 37.75C20.7 37.7578 21.2412 38.3331 21.2412 39.1883Z" fill="#231F20"/>
<path d="M41.0906 31.6924H29.2502V10.2632H41.0906V31.6924Z" fill="#FF5F00"/>
<path d="M30.0014 20.9784C30.0014 16.6314 32.0224 12.7592 35.1696 10.2638C32.8682 8.43905 29.9636 7.34991 26.8069 7.34991C19.3337 7.34991 13.2759 13.4515 13.2759 20.9784C13.2759 28.5053 19.3337 34.6069 26.8069 34.6069C29.9636 34.6069 32.8682 33.5178 35.1696 31.693C32.0224 29.1976 30.0014 25.3254 30.0014 20.9784Z" fill="#EB001B"/>
<path d="M57.0643 20.9784C57.0643 28.5053 51.0065 34.6069 43.5333 34.6069C40.3766 34.6069 37.472 33.5178 35.1697 31.693C38.3178 29.1976 40.3388 25.3254 40.3388 20.9784C40.3388 16.6314 38.3178 12.7592 35.1697 10.2638C37.472 8.43905 40.3766 7.34991 43.5333 7.34991C51.0065 7.34991 57.0643 13.4515 57.0643 20.9784Z" fill="#F79E1B"/>
</svg>
