<svg width="68" height="49" viewBox="0 0 68 49" fill="none" xmlns="http://www.w3.org/2000/svg">
<rect x="0.5" y="0.5" width="67" height="48" rx="3.5" fill="white" stroke="#F3F3F3"/>
<path fill-rule="evenodd" clip-rule="evenodd" d="M30.9971 24.8136L31.2931 22.8432L30.6337 22.8271H27.4846L29.6731 8.28693C29.6799 8.2429 29.702 8.20203 29.7342 8.17296C29.7665 8.14388 29.8077 8.12793 29.8509 8.12793H35.1607C36.9236 8.12793 38.1401 8.51223 38.7751 9.27087C39.0729 9.62676 39.2625 9.99876 39.3543 10.408C39.4506 10.8375 39.4522 11.3505 39.3583 11.9764L39.3515 12.022V12.423L39.6493 12.5998C39.9 12.7392 40.0993 12.8987 40.2521 13.0813C40.5068 13.3857 40.6715 13.7725 40.7411 14.2309C40.8131 14.7024 40.7893 15.2637 40.6715 15.899C40.5356 16.6298 40.316 17.2663 40.0194 17.787C39.7466 18.2668 39.3991 18.6649 38.9863 18.9733C38.5923 19.2664 38.1242 19.4888 37.5949 19.6312C37.082 19.7711 36.4972 19.8417 35.8558 19.8417H35.4426C35.1472 19.8417 34.8602 19.9532 34.6349 20.1531C34.4089 20.3571 34.2595 20.6359 34.2137 20.9408L34.1825 21.1183L33.6594 24.5913L33.6358 24.7187C33.6294 24.7591 33.6186 24.7792 33.6028 24.7928C33.5887 24.8053 33.5684 24.8136 33.5485 24.8136H30.9971Z" fill="#28356A"/>
<path fill-rule="evenodd" clip-rule="evenodd" d="M39.9314 12.0684C39.9157 12.1745 39.8974 12.283 39.8771 12.3945C39.1769 16.1618 36.7812 17.4632 33.7215 17.4632H32.1637C31.7895 17.4632 31.4741 17.7478 31.4159 18.1346L30.3924 24.9376C30.3545 25.1916 30.5412 25.4204 30.7857 25.4204H33.5489C33.876 25.4204 34.1539 25.1713 34.2055 24.8332L34.2326 24.6862L34.7528 21.2268L34.7863 21.0371C34.8372 20.6978 35.1158 20.4486 35.4429 20.4486H35.8561C38.5331 20.4486 40.6289 19.3098 41.2414 16.0141C41.4972 14.6373 41.3648 13.4878 40.6877 12.6793C40.4828 12.4355 40.2287 12.2332 39.9314 12.0684Z" fill="#298FC2"/>
<path fill-rule="evenodd" clip-rule="evenodd" d="M39.1988 11.7624C39.0918 11.7296 38.9815 11.7001 38.8682 11.6733C38.7544 11.6472 38.6378 11.6241 38.5178 11.6039C38.0978 11.5328 37.6375 11.499 37.1445 11.499H32.9827C32.8801 11.499 32.7827 11.5233 32.6957 11.5671C32.5037 11.6638 32.3611 11.8542 32.3266 12.0874L31.4411 17.9634L31.4158 18.1347C31.474 17.7479 31.7893 17.4633 32.1636 17.4633H33.7214C36.7811 17.4633 39.1768 16.1612 39.877 12.3946C39.8979 12.2831 39.9155 12.1746 39.9312 12.0684C39.7541 11.9699 39.5623 11.8857 39.3557 11.8139C39.3046 11.7961 39.252 11.779 39.1988 11.7624Z" fill="#22284F"/>
<path fill-rule="evenodd" clip-rule="evenodd" d="M32.3266 12.0873C32.3612 11.8542 32.5037 11.6638 32.6957 11.5677C32.7834 11.5237 32.8801 11.4994 32.9827 11.4994H37.1445C37.6375 11.4994 38.0978 11.5333 38.5179 11.6044C38.6379 11.6245 38.7544 11.6478 38.8683 11.6739C38.9815 11.7005 39.0918 11.7302 39.1989 11.7628C39.252 11.7794 39.3046 11.7967 39.3562 11.8138C39.5628 11.8856 39.7548 11.9705 39.9319 12.0683C40.1403 10.6762 39.9302 9.72829 39.2119 8.86997C38.4199 7.92491 36.9906 7.52051 35.1615 7.52051H29.8516C29.478 7.52051 29.1593 7.80512 29.1016 8.19258L26.8899 22.8823C26.8463 23.1729 27.0602 23.4351 27.3399 23.4351H30.6181L32.3266 12.0873Z" fill="#28356A"/>
<path fill-rule="evenodd" clip-rule="evenodd" d="M15.3524 28.813H11.4809C11.216 28.813 10.9906 29.0147 10.9493 29.2888L9.38344 39.6911C9.35237 39.8964 9.50411 40.0814 9.70279 40.0814H11.551C11.816 40.0814 12.0413 39.8798 12.0827 39.6052L12.5049 36.7994C12.5457 36.5248 12.7715 36.3231 13.0359 36.3231H14.2615C16.8117 36.3231 18.2834 35.0299 18.668 32.4676C18.8411 31.3464 18.6752 30.4657 18.1742 29.8488C17.624 29.1714 16.648 28.813 15.3524 28.813ZM15.7988 32.6123C15.5871 34.0679 14.5257 34.0679 13.4995 34.0679H12.9152L13.3251 31.3494C13.3495 31.1851 13.4852 31.0641 13.6438 31.0641H13.9116C14.6107 31.0641 15.2702 31.0641 15.6109 31.4817C15.8142 31.7307 15.8763 32.1009 15.7988 32.6123Z" fill="#28356A"/>
<path fill-rule="evenodd" clip-rule="evenodd" d="M27.0235 32.487H25.1696C25.0117 32.487 24.8752 32.6079 24.8509 32.7722L24.7688 33.3155L24.6392 33.1187C24.2379 32.5082 23.3428 32.3042 22.4496 32.3042C20.4008 32.3042 18.6511 33.9301 18.3103 36.2109C18.1332 37.3485 18.385 38.4364 19.001 39.195C19.566 39.8925 20.3743 40.1833 21.336 40.1833C22.9868 40.1833 23.902 39.0711 23.902 39.0711L23.8194 39.6109C23.7884 39.8173 23.9401 40.0024 24.1377 40.0024H25.8075C26.0731 40.0024 26.2973 39.8007 26.3392 39.526L27.3411 32.8772C27.3728 32.6726 27.2216 32.487 27.0235 32.487ZM24.4392 36.2678C24.2604 37.3775 23.4198 38.1226 22.3476 38.1226C21.8093 38.1226 21.3791 37.9416 21.1028 37.5989C20.8288 37.2584 20.7247 36.7738 20.8118 36.2339C20.9789 35.1337 21.8336 34.3643 22.8894 34.3643C23.4159 34.3643 23.8438 34.5477 24.1258 34.8933C24.4082 35.2427 24.5203 35.7304 24.4392 36.2678Z" fill="#28356A"/>
<path fill-rule="evenodd" clip-rule="evenodd" d="M36.7547 32.6533H34.8916C34.7138 32.6533 34.5469 32.7459 34.4462 32.9007L31.8767 36.8665L30.7875 33.0554C30.719 32.817 30.5091 32.6533 30.2712 32.6533H28.4406C28.218 32.6533 28.0635 32.8811 28.1343 33.1006L30.1864 39.4106L28.2572 42.2643C28.1054 42.4891 28.2583 42.7982 28.5204 42.7982H30.3811C30.5577 42.7982 30.723 42.708 30.8232 42.5563L37.0195 33.1842C37.1679 32.96 37.0156 32.6533 36.7547 32.6533Z" fill="#28356A"/>
<path fill-rule="evenodd" clip-rule="evenodd" d="M42.9655 28.813H39.0936C38.8292 28.813 38.6039 29.0147 38.5625 29.2888L36.9967 39.6911C36.9656 39.8964 37.1174 40.0814 37.315 40.0814H39.3019C39.4863 40.0814 39.6443 39.9403 39.6731 39.7481L40.1176 36.7994C40.1583 36.5248 40.3843 36.3231 40.6486 36.3231H41.8737C44.4243 36.3231 45.8956 35.0299 46.2806 32.4676C46.4544 31.3464 46.2874 30.4657 45.7864 29.8488C45.2366 29.1714 44.2613 28.813 42.9655 28.813ZM43.4123 32.6123C43.201 34.0679 42.1396 34.0679 41.1128 34.0679H40.5293L40.9396 31.3494C40.9639 31.1851 41.0987 31.0641 41.2577 31.0641H41.5255C42.224 31.0641 42.8841 31.0641 43.2248 31.4817C43.4281 31.7307 43.4898 32.1009 43.4123 32.6123Z" fill="#298FC2"/>
<path fill-rule="evenodd" clip-rule="evenodd" d="M54.6343 32.487H52.7815C52.6225 32.487 52.4872 32.6079 52.4634 32.7722L52.3813 33.3155L52.2511 33.1187C51.8498 32.5082 50.9553 32.3042 50.062 32.3042C48.0133 32.3042 46.2642 33.9301 45.9235 36.2109C45.7468 37.3485 45.9975 38.4364 46.6134 39.195C47.1796 39.8925 47.9867 40.1833 48.9486 40.1833C50.5992 40.1833 51.5146 39.0711 51.5146 39.0711L51.432 39.6109C51.4009 39.8173 51.5525 40.0024 51.7513 40.0024H53.4207C53.685 40.0024 53.9103 39.8007 53.9517 39.526L54.9541 32.8772C54.9847 32.6726 54.833 32.487 54.6343 32.487ZM52.0501 36.2678C51.8723 37.3775 51.0305 38.1226 49.9583 38.1226C49.4211 38.1226 48.9898 37.9416 48.7135 37.5989C48.4396 37.2584 48.3366 36.7738 48.4225 36.2339C48.5907 35.1337 49.4443 34.3643 50.5001 34.3643C51.0266 34.3643 51.4545 34.5477 51.7365 34.8933C52.02 35.2427 52.1321 35.7304 52.0501 36.2678Z" fill="#298FC2"/>
<path fill-rule="evenodd" clip-rule="evenodd" d="M56.6655 29.0989L55.0766 39.6916C55.0455 39.8969 55.1971 40.0819 55.3946 40.0819H56.9922C57.2578 40.0819 57.4829 39.8803 57.5237 39.6057L59.0906 29.2039C59.1218 28.9986 58.9701 28.813 58.7725 28.813H56.9838C56.8258 28.8135 56.6899 28.9346 56.6655 29.0989Z" fill="#298FC2"/>
</svg>
