<svg width="70" height="49" viewBox="0 0 70 49" fill="none" xmlns="http://www.w3.org/2000/svg">
<rect x="0.5" y="0.5" width="69" height="48" rx="3.5" fill="white" stroke="#F3F3F3"/>
<path fill-rule="evenodd" clip-rule="evenodd" d="M59.9469 7.35989L46.6068 7.35645C46.6052 7.35645 46.6034 7.35645 46.6034 7.35645C46.5931 7.35645 46.583 7.35829 46.5729 7.35829C44.7403 7.41458 42.4578 8.88842 42.0421 10.7058L35.7335 38.6957C35.3178 40.5301 36.4487 42.0227 38.268 42.0501H52.2823C54.0739 41.9613 55.8149 40.5044 56.2235 38.7077L62.5324 10.7175C62.9547 8.86452 61.7965 7.35989 59.9469 7.35989Z" fill="#01798A"/>
<path fill-rule="evenodd" clip-rule="evenodd" d="M35.7337 38.6958L42.0423 10.7058C42.458 8.88845 44.7405 7.41461 46.5731 7.35831L41.2691 7.35487L31.713 7.35303C29.8752 7.39071 27.563 8.87489 27.1475 10.7058L20.837 38.6958C20.4197 40.5301 21.5523 42.0227 23.3705 42.0502H38.2682C36.4489 42.0227 35.318 40.5301 35.7337 38.6958" fill="#024381"/>
<path fill-rule="evenodd" clip-rule="evenodd" d="M20.8369 38.696L27.1474 10.7061C27.5629 8.87518 29.8751 7.391 31.7129 7.35332L19.4709 7.3501C17.6229 7.3501 15.2535 8.85128 14.8312 10.7061L8.52066 38.696C8.48226 38.8669 8.46095 39.0343 8.44824 39.1981V39.7173C8.57178 41.0545 9.59021 42.0282 11.0542 42.0504H23.3704C21.5522 42.023 20.4196 40.5304 20.8369 38.696Z" fill="#DD0228"/>
<path fill-rule="evenodd" clip-rule="evenodd" d="M31.971 27.7486H32.2027C32.4156 27.7486 32.5588 27.677 32.626 27.5351L33.228 26.6317H34.8401L34.504 27.2259H36.437L36.1918 28.1363H33.8916C33.6267 28.536 33.3006 28.7238 32.9085 28.7016H31.7105L31.971 27.7486H31.971ZM31.7065 29.0534H35.9414L35.6714 30.0424H33.9683L33.7084 30.997H35.3657L35.0958 31.9859H33.4385L33.0535 33.3965C32.9581 33.6322 33.0835 33.7383 33.4275 33.7142H34.7782L34.5279 34.6332H31.9347C31.4431 34.6332 31.2745 34.3512 31.4287 33.786L31.921 31.9859H30.8616L31.1307 30.997H32.1902L32.4499 30.0424H31.4372L31.7065 29.0534H31.7065ZM38.4657 26.625L38.399 27.2039C38.399 27.2039 39.1979 26.6025 39.9234 26.6025H42.6044L41.5791 30.324C41.4941 30.7494 41.1295 30.961 40.4856 30.961H37.4468L36.7351 33.5742C36.694 33.7142 36.752 33.786 36.9053 33.786H37.5032L37.2834 34.5971H35.7634C35.18 34.5971 34.9373 34.4212 35.0335 34.0678L37.0449 26.625H38.4657H38.4657H38.4657ZM40.7362 27.677H38.3433L38.057 28.6811C38.057 28.6811 38.4555 28.3926 39.1215 28.3823C39.7856 28.3719 40.5437 28.3823 40.5437 28.3823L40.7362 27.677ZM39.8692 30.0064C40.0461 30.0305 40.1451 29.9603 40.157 29.7946L40.3035 29.2653H37.9069L37.7059 30.0064H39.8692ZM38.2526 31.2087H39.634L39.6083 31.8081H39.9761C40.162 31.8081 40.2541 31.7485 40.2541 31.6307L40.363 31.2429H41.5111L41.3578 31.8081C41.2281 32.2796 40.8843 32.5255 40.3256 32.5496H39.5898L39.5863 33.5742C39.5728 33.7383 39.7209 33.8219 40.0256 33.8219H40.7173L40.4941 34.6331H38.8351C38.3702 34.6553 38.1422 34.4332 38.147 33.9619L38.2526 31.2087Z" fill="white"/>
<path fill-rule="evenodd" clip-rule="evenodd" d="M21.5132 21.6667C21.3259 22.5873 20.8915 23.2944 20.2178 23.7965C19.5502 24.2901 18.6891 24.5376 17.6349 24.5376C16.6428 24.5376 15.9154 24.2848 15.4513 23.7776C15.1294 23.4172 14.9692 22.9595 14.9692 22.4062C14.9692 22.1774 14.9966 21.9314 15.0511 21.6667L16.1743 16.2358H17.8708L16.7628 21.6053C16.7287 21.7539 16.7151 21.8922 16.7169 22.0169C16.7151 22.2919 16.7832 22.5173 16.9212 22.6931C17.1221 22.9545 17.4483 23.0842 17.9023 23.0842C18.4243 23.0842 18.8544 22.9562 19.1882 22.6982C19.5221 22.4421 19.7401 22.0784 19.838 21.6053L20.9494 16.2358H22.6373L21.5132 21.6667Z" fill="white"/>
<path fill-rule="evenodd" clip-rule="evenodd" d="M28.6377 19.5305H29.9663L28.9256 24.3774H27.5996L28.6377 19.5305ZM29.0558 17.7646H30.3963L30.1459 18.9411H28.8056L29.0558 17.7646Z" fill="white"/>
<path fill-rule="evenodd" clip-rule="evenodd" d="M31.1423 24.0082C30.7948 23.6752 30.6194 23.226 30.6177 22.6556C30.6177 22.5582 30.6236 22.4473 30.6365 22.3259C30.6493 22.2029 30.6655 22.0834 30.6884 21.9725C30.8459 21.1852 31.1815 20.5601 31.6984 20.0989C32.2145 19.6361 32.8371 19.4038 33.5661 19.4038C34.1631 19.4038 34.6365 19.5712 34.9833 19.9059C35.3297 20.2424 35.5035 20.6966 35.5035 21.274C35.5035 21.3729 35.4959 21.4874 35.4831 21.6104C35.4677 21.735 35.4491 21.8546 35.4276 21.9725C35.2736 22.7478 34.939 23.3661 34.422 23.8187C33.905 24.2747 33.2842 24.5017 32.5603 24.5017C31.9608 24.5017 31.489 24.3378 31.1423 24.0082M33.6743 23.0484C33.9085 22.7939 34.0763 22.4079 34.1785 21.8939C34.1938 21.8137 34.2074 21.7299 34.2158 21.6463C34.2243 21.5642 34.2278 21.4874 34.2278 21.4174C34.2278 21.1185 34.1519 20.8863 33.9995 20.7223C33.848 20.5566 33.6326 20.4747 33.3542 20.4747C32.9862 20.4747 32.6864 20.6043 32.4515 20.864C32.2146 21.1237 32.0468 21.5165 31.9412 22.0391C31.9267 22.1193 31.9148 22.1996 31.9038 22.2782C31.8953 22.3584 31.8928 22.4336 31.8944 22.5019C31.8944 22.7991 31.9703 23.0279 32.1227 23.1901C32.2741 23.3524 32.4886 23.4327 32.7707 23.4327C33.1404 23.4327 33.4401 23.3046 33.6743 23.0484" fill="white"/>
<path fill-rule="evenodd" clip-rule="evenodd" d="M44.1239 27.7894L44.4442 26.6589H46.064L45.9941 27.0737C45.9941 27.0737 46.8218 26.6589 47.4179 26.6589C48.0141 26.6589 49.4208 26.6589 49.4208 26.6589L49.1024 27.7894H48.7873L47.2765 33.1214H47.5916L47.2918 34.1803H46.9767L46.8456 34.6397H45.277L45.4079 34.1803H42.3132L42.6148 33.1214H42.9249L44.4371 27.7894H44.1239H44.1239ZM45.8714 27.7894L45.4591 29.2324C45.4591 29.2324 46.1645 28.961 46.7725 28.8842C46.9067 28.3803 47.0823 27.7894 47.0823 27.7894H45.8714L45.8714 27.7894ZM45.2682 29.9089L44.8545 31.4203C44.8545 31.4203 45.6362 31.0344 46.1727 31.0019C46.3276 30.4177 46.4828 29.9089 46.4828 29.9089H45.2682V29.9089ZM45.5714 33.1214L45.8814 32.025H44.6724L44.3607 33.1214H45.5714ZM49.4889 26.5889H51.0117L51.0763 27.1523C51.0662 27.2957 51.1513 27.3642 51.3318 27.3642H51.6009L51.3286 28.3188H50.2094C49.782 28.341 49.5622 28.1772 49.5418 27.8235L49.4889 26.5889ZM49.0428 28.6365H53.9753L53.6859 29.6613H52.1154L51.8462 30.6141H53.415L53.1238 31.6372H51.3764L50.9811 32.2368H51.8363L52.0339 33.4373C52.0575 33.5569 52.1631 33.615 52.3437 33.615H52.6093L52.3302 34.6036H51.3899C50.9027 34.6277 50.6509 34.4637 50.6302 34.1103L50.4036 33.0138L49.6254 34.1803C49.4413 34.5099 49.1585 34.6636 48.7772 34.6397H47.3413L47.6206 33.6507H48.0686C48.2527 33.6507 48.4057 33.5687 48.5437 33.4031L49.7617 31.6372H48.1912L48.4823 30.6141H50.1857L50.4565 29.6613H48.7516L49.0428 28.6365Z" fill="white"/>
<path fill-rule="evenodd" clip-rule="evenodd" d="M23.076 19.5287H24.2741L24.1371 20.2289L24.3091 20.0291C24.6975 19.6125 25.1692 19.4058 25.7262 19.4058C26.2304 19.4058 26.594 19.5527 26.8223 19.8481C27.047 20.1436 27.1084 20.5518 27.002 21.0761L26.3419 24.3791H25.1105L25.7066 21.3852C25.768 21.0761 25.751 20.8455 25.6563 20.6969C25.5628 20.5483 25.3838 20.475 25.1258 20.475C24.809 20.475 24.5424 20.5739 24.3253 20.7704C24.1072 20.9685 23.9634 21.2435 23.8926 21.5936L23.3434 24.3791H22.1094L23.076 19.5287Z" fill="white"/>
<path fill-rule="evenodd" clip-rule="evenodd" d="M36.8165 19.5287H38.0157L37.8796 20.2289L38.0496 20.0291C38.4383 19.6125 38.9117 19.4058 39.467 19.4058C39.9712 19.4058 40.3355 19.5527 40.5619 19.8481C40.7854 20.1436 40.85 20.5518 40.7409 21.0761L40.0834 24.3791H38.8503L39.4466 21.3852C39.5078 21.0761 39.4908 20.8455 39.3971 20.6969C39.2999 20.5483 39.1244 20.475 38.8675 20.475C38.5506 20.475 38.285 20.5739 38.0652 20.7704C37.847 20.9685 37.7024 21.2435 37.6344 21.5936L37.0825 24.3791H35.8501L36.8165 19.5287" fill="white"/>
<path fill-rule="evenodd" clip-rule="evenodd" d="M42.744 16.5229H46.2255C46.8949 16.5229 47.4126 16.6751 47.7684 16.9738C48.1227 17.2762 48.3001 17.71 48.3001 18.2753V18.2923C48.3001 18.3998 48.293 18.5212 48.2829 18.6526C48.2657 18.7824 48.2435 18.9139 48.2149 19.0506C48.0615 19.7986 47.7054 20.3998 47.1554 20.8558C46.6034 21.3101 45.9496 21.539 45.1968 21.539H43.3298L42.7525 24.3792H41.136L42.744 16.5229M43.6143 20.1728H45.1628C45.5663 20.1728 45.8865 20.0787 46.12 19.8926C46.3517 19.7048 46.505 19.4179 46.59 19.0285C46.6035 18.9566 46.612 18.8918 46.6223 18.8321C46.6276 18.7758 46.6342 18.7192 46.6342 18.6648C46.6342 18.3863 46.5357 18.1848 46.3379 18.0584C46.1404 17.9301 45.8305 17.8688 45.4011 17.8688H44.0861L43.6143 20.1728" fill="white"/>
<path fill-rule="evenodd" clip-rule="evenodd" d="M55.5354 25.3166C55.0244 26.4061 54.5374 27.0413 54.2514 27.3368C53.965 27.629 53.398 28.3087 52.032 28.2574L52.1495 27.4258C53.299 27.0705 53.9208 25.4701 54.275 24.7614L53.8527 19.5422L54.7418 19.5303H55.4878L55.568 22.8043L56.9661 19.5303H58.3817L55.5354 25.3166" fill="white"/>
<path fill-rule="evenodd" clip-rule="evenodd" d="M51.5772 19.9249L51.0148 20.3127C50.4272 19.8516 49.8907 19.5664 48.8554 20.0479C47.4449 20.7037 46.2663 25.7334 50.1497 24.0768L50.3711 24.3398L51.8989 24.3791L52.9022 19.8088L51.5772 19.9249M50.7085 22.4236C50.4631 23.1494 49.915 23.6293 49.4857 23.4927C49.0565 23.3595 48.9032 22.6592 49.1518 21.9317C49.397 21.2041 49.9489 20.7259 50.3747 20.8626C50.8039 20.9958 50.9588 21.696 50.7085 22.4236Z" fill="white"/>
<path fill-rule="evenodd" clip-rule="evenodd" d="M46.6035 7.36569L41.269 7.35498L46.573 7.37793C46.5831 7.37793 46.5932 7.36569 46.6035 7.36569" fill="#E02F41"/>
<path fill-rule="evenodd" clip-rule="evenodd" d="M41.269 7.38378L31.7862 7.3501C31.7624 7.3501 31.7376 7.36081 31.7129 7.37154L41.269 7.38378" fill="#2E4F7D"/>
</svg>
