<svg width="68" height="49" viewBox="0 0 68 49" fill="none" xmlns="http://www.w3.org/2000/svg">
<rect x="0.5" y="0.5" width="67" height="48" rx="3.5" fill="white" stroke="#F3F3F3"/>
<path d="M30.1918 33.6059H25.6646L28.4962 16.4551H33.0232L30.1918 33.6059Z" fill="#15195A"/>
<path d="M46.6032 16.8742C45.7103 16.5272 44.2939 16.144 42.5426 16.144C38.0718 16.144 34.9235 18.4794 34.9042 21.8182C34.8671 24.2815 37.1583 25.6497 38.872 26.4711C40.6235 27.3104 41.2189 27.8582 41.2189 28.6063C41.2011 29.7553 39.8036 30.285 38.5001 30.285C36.6926 30.285 35.7242 30.0119 34.2524 29.3727L33.6562 29.0986L33.0227 32.9486C34.0845 33.4225 36.0408 33.843 38.0718 33.8614C42.8222 33.8614 45.9148 31.5622 45.9514 28.0042C45.9695 26.0518 44.7596 24.5558 42.1512 23.3333C40.5678 22.5486 39.5981 22.0194 39.5981 21.2165C39.6167 20.4866 40.4183 19.7389 42.2057 19.7389C43.6775 19.7023 44.7589 20.0488 45.5781 20.3956L45.9875 20.5777L46.6032 16.8742Z" fill="#15195A"/>
<path fill-rule="evenodd" clip-rule="evenodd" d="M54.7071 16.4551H58.209L61.8613 33.6057H57.6695C57.6695 33.6057 57.2593 31.6351 57.1293 31.033H51.3167C51.1486 31.4889 50.3665 33.6057 50.3665 33.6057H45.6162L52.3409 17.8781C52.8068 16.765 53.6272 16.4551 54.7071 16.4551ZM54.4282 22.7313C54.4282 22.7313 52.9936 26.5447 52.6207 27.53H56.3837C56.1976 26.6725 55.3402 22.5672 55.3402 22.5672L55.0238 21.0893C54.8906 21.4699 54.6979 21.9931 54.568 22.346C54.4799 22.5852 54.4206 22.7461 54.4282 22.7313Z" fill="#15195A"/>
<path d="M13.3323 16.4551C14.3195 16.4912 15.1203 16.8014 15.3811 17.8965L16.9641 25.7764L16.9651 25.7783L17.4495 28.1504L21.8831 16.4551H26.6702L19.554 33.5879H14.7668L10.7307 18.6836C9.3388 17.8866 7.74982 17.2466 5.97388 16.8018L6.0481 16.4551H13.3323Z" fill="#15195A"/>
</svg>
