<svg width="35" height="34" viewBox="0 0 35 34" fill="none" xmlns="http://www.w3.org/2000/svg">
<path d="M17.4921 8.20744C12.7119 8.20744 8.8562 12.064 8.8562 16.8453C8.8562 21.6265 12.7119 25.4831 17.4921 25.4831C22.2723 25.4831 26.128 21.6265 26.128 16.8453C26.128 12.064 22.2723 8.20744 17.4921 8.20744ZM17.4921 22.461C14.403 22.461 11.8776 19.9426 11.8776 16.8453C11.8776 13.748 14.3955 11.2296 17.4921 11.2296C20.5887 11.2296 23.1066 13.748 23.1066 16.8453C23.1066 19.9426 20.5812 22.461 17.4921 22.461ZM28.4956 7.85411C28.4956 8.97425 27.5936 9.86886 26.4813 9.86886C25.3614 9.86886 24.467 8.96673 24.467 7.85411C24.467 6.74149 25.3689 5.83937 26.4813 5.83937C27.5936 5.83937 28.4956 6.74149 28.4956 7.85411ZM34.2152 9.89893C34.0875 7.20007 33.4712 4.80945 31.4944 2.83981C29.5252 0.870173 27.1352 0.253722 24.4369 0.118404C21.656 -0.0394679 13.3207 -0.0394679 10.5398 0.118404C7.84905 0.246205 5.45896 0.862656 3.48224 2.83229C1.50553 4.80193 0.896732 7.19256 0.761444 9.89141C0.603607 12.673 0.603607 21.0101 0.761444 23.7916C0.889216 26.4905 1.50553 28.8811 3.48224 30.8507C5.45896 32.8204 7.84153 33.4368 10.5398 33.5722C13.3207 33.73 21.656 33.73 24.4369 33.5722C27.1352 33.4444 29.5252 32.8279 31.4944 30.8507C33.4636 28.8811 34.08 26.4905 34.2152 23.7916C34.3731 21.0101 34.3731 12.6805 34.2152 9.89893ZM30.6226 26.7762C30.0363 28.2496 28.9014 29.3848 27.4208 29.9787C25.2035 30.8583 19.9423 30.6553 17.4921 30.6553C15.0419 30.6553 9.77315 30.8507 7.56344 29.9787C6.0903 29.3923 4.95538 28.2571 4.36162 26.7762C3.48224 24.5584 3.68518 19.296 3.68518 16.8453C3.68518 14.3945 3.48976 9.1246 4.36162 6.9144C4.94787 5.44093 6.08279 4.30576 7.56344 3.71186C9.78067 2.83229 15.0419 3.03527 17.4921 3.03527C19.9423 3.03527 25.2111 2.83981 27.4208 3.71186C28.8939 4.29824 30.0288 5.43341 30.6226 6.9144C31.502 9.13212 31.299 14.3945 31.299 16.8453C31.299 19.296 31.502 24.566 30.6226 26.7762Z" fill="white"/>
</svg>
