<svg width="33" height="34" viewBox="0 0 33 34" fill="none" xmlns="http://www.w3.org/2000/svg">
<path d="M33 17.0142C33 26.029 25.696 33.333 16.6812 33.333C14.9966 33.333 13.3779 33.0764 11.8513 32.6026C12.5159 31.5169 13.5095 29.7403 13.878 28.3255C14.0754 27.5622 14.8914 24.4432 14.8914 24.4432C15.4244 25.4566 16.9773 26.3186 18.6289 26.3186C23.5509 26.3186 27.0976 21.7914 27.0976 16.1653C27.0976 10.7762 22.6955 6.7425 17.0365 6.7425C9.9957 6.7425 6.25157 11.4671 6.25157 16.6194C6.25157 19.0146 7.52813 21.9954 9.56141 22.9429C9.87067 23.0877 10.0352 23.0219 10.1076 22.7258C10.1602 22.5021 10.4366 21.39 10.5616 20.8767C10.6011 20.7122 10.5813 20.5675 10.4497 20.4096C9.78513 19.587 9.24556 18.0867 9.24556 16.6852C9.24556 13.0858 11.9698 9.60489 16.6154 9.60489C20.6227 9.60489 23.4324 12.3357 23.4324 16.2443C23.4324 20.6596 21.2018 23.7194 18.2999 23.7194C16.7009 23.7194 15.4967 22.3968 15.885 20.7715C16.3456 18.8303 17.2339 16.7378 17.2339 15.3362C17.2339 14.086 16.5627 13.0397 15.1677 13.0397C13.5293 13.0397 12.2132 14.7309 12.2132 17.001C12.2132 18.4487 12.7002 19.4225 12.7002 19.4225C12.7002 19.4225 11.088 26.2528 10.7919 27.5293C10.4629 28.9375 10.5945 30.9247 10.7327 32.2144C4.66575 29.839 0.362305 23.93 0.362305 17.0142C0.362305 7.99932 7.66631 0.695312 16.6812 0.695312C25.696 0.695312 33 7.99932 33 17.0142Z" fill="white"/>
</svg>
