<svg width="44" height="31" viewBox="0 0 44 31" fill="none" xmlns="http://www.w3.org/2000/svg">
<path d="M42.5087 4.77651C42.0127 2.90905 40.5514 1.43831 38.6961 0.939186C35.3331 0.0322266 21.8478 0.0322266 21.8478 0.0322266C21.8478 0.0322266 8.36269 0.0322266 4.99961 0.939186C3.14424 1.43838 1.68297 2.90905 1.187 4.77651C0.285889 8.16138 0.285889 15.2236 0.285889 15.2236C0.285889 15.2236 0.285889 22.2858 1.187 25.6707C1.68297 27.5381 3.14424 28.9476 4.99961 29.4467C8.36269 30.3537 21.8478 30.3537 21.8478 30.3537C21.8478 30.3537 35.333 30.3537 38.6961 29.4467C40.5514 28.9476 42.0127 27.5381 42.5087 25.6707C43.4098 22.2858 43.4098 15.2236 43.4098 15.2236C43.4098 15.2236 43.4098 8.16138 42.5087 4.77651ZM17.4374 21.6356V8.81163L28.7084 15.2238L17.4374 21.6356Z" fill="white"/>
</svg>
