<svg width="55" height="55" viewBox="0 0 55 55" fill="none" xmlns="http://www.w3.org/2000/svg">
<path d="M55 27.5C55 42.6879 42.6879 55 27.5 55C12.3121 55 0 42.6879 0 27.5C0 12.3121 12.3121 0 27.5 0C42.6879 0 55 12.3121 55 27.5ZM24.3191 42.061L44.7223 21.6578C45.4151 20.965 45.4151 19.8416 44.7223 19.1488L42.2133 16.6397C41.5205 15.9468 40.3971 15.9468 39.7041 16.6397L23.0645 33.2792L15.2959 25.5106C14.6031 24.8178 13.4797 24.8178 12.7867 25.5106L10.2777 28.0196C9.58486 28.7124 9.58486 29.8358 10.2777 30.5287L21.8099 42.0609C22.5029 42.7539 23.6262 42.7539 24.3191 42.061Z" fill="#188654"/>
</svg>
