<svg width="14" height="14" viewBox="0 0 14 14" fill="none" xmlns="http://www.w3.org/2000/svg">
<g clip-path="url(#clip0_1265_26183)">
<path d="M13.4163 11.083H12.2497V9.91631C12.2497 9.7616 12.1882 9.61323 12.0788 9.50383C11.9694 9.39443 11.821 9.33298 11.6663 9.33298C11.5116 9.33298 11.3633 9.39443 11.2539 9.50383C11.1445 9.61323 11.083 9.7616 11.083 9.91631V11.083H9.91634C9.76163 11.083 9.61326 11.1444 9.50386 11.2538C9.39447 11.3632 9.33301 11.5116 9.33301 11.6663C9.33301 11.821 9.39447 11.9694 9.50386 12.0788C9.61326 12.1882 9.76163 12.2496 9.91634 12.2496H11.083V13.4163C11.083 13.571 11.1445 13.7194 11.2539 13.8288C11.3633 13.9382 11.5116 13.9996 11.6663 13.9996C11.821 13.9996 11.9694 13.9382 12.0788 13.8288C12.1882 13.7194 12.2497 13.571 12.2497 13.4163V12.2496H13.4163C13.571 12.2496 13.7194 12.1882 13.8288 12.0788C13.9382 11.9694 13.9997 11.821 13.9997 11.6663C13.9997 11.5116 13.9382 11.3632 13.8288 11.2538C13.7194 11.1444 13.571 11.083 13.4163 11.083Z" fill="#FF939D"/>
<path d="M12.25 3.5H10.5C10.5 2.57174 10.1313 1.6815 9.47487 1.02513C8.8185 0.368749 7.92826 0 7 0C6.07174 0 5.1815 0.368749 4.52513 1.02513C3.86875 1.6815 3.5 2.57174 3.5 3.5H1.75C1.28587 3.5 0.840752 3.68437 0.512563 4.01256C0.184374 4.34075 0 4.78587 0 5.25L0 11.0833C0.00092625 11.8566 0.308514 12.5979 0.855295 13.1447C1.40208 13.6915 2.1434 13.9991 2.91667 14H8.16667C8.32138 14 8.46975 13.9385 8.57915 13.8291C8.68854 13.7197 8.75 13.5714 8.75 13.4167C8.75 13.262 8.68854 13.1136 8.57915 13.0042C8.46975 12.8948 8.32138 12.8333 8.16667 12.8333H2.91667C2.45254 12.8333 2.00742 12.649 1.67923 12.3208C1.35104 11.9926 1.16667 11.5475 1.16667 11.0833V5.25C1.16667 5.09529 1.22812 4.94692 1.33752 4.83752C1.44692 4.72812 1.59529 4.66667 1.75 4.66667H3.5V5.83333C3.5 5.98804 3.56146 6.13642 3.67085 6.24581C3.78025 6.35521 3.92862 6.41667 4.08333 6.41667C4.23804 6.41667 4.38642 6.35521 4.49581 6.24581C4.60521 6.13642 4.66667 5.98804 4.66667 5.83333V4.66667H9.33333V5.83333C9.33333 5.98804 9.39479 6.13642 9.50419 6.24581C9.61358 6.35521 9.76196 6.41667 9.91667 6.41667C10.0714 6.41667 10.2197 6.35521 10.3291 6.24581C10.4385 6.13642 10.5 5.98804 10.5 5.83333V4.66667H12.25C12.4047 4.66667 12.5531 4.72812 12.6625 4.83752C12.7719 4.94692 12.8333 5.09529 12.8333 5.25V8.16667C12.8333 8.32138 12.8948 8.46975 13.0042 8.57915C13.1136 8.68854 13.262 8.75 13.4167 8.75C13.5714 8.75 13.7197 8.68854 13.8291 8.57915C13.9385 8.46975 14 8.32138 14 8.16667V5.25C14 4.78587 13.8156 4.34075 13.4874 4.01256C13.1592 3.68437 12.7141 3.5 12.25 3.5ZM4.66667 3.5C4.66667 2.88116 4.9125 2.28767 5.35008 1.85008C5.78767 1.4125 6.38116 1.16667 7 1.16667C7.61884 1.16667 8.21233 1.4125 8.64992 1.85008C9.0875 2.28767 9.33333 2.88116 9.33333 3.5H4.66667Z" fill="#FF939D"/>
</g>
<defs>
<clipPath id="clip0_1265_26183">
<rect width="14" height="14" fill="white"/>
</clipPath>
</defs>
</svg>
