<svg width="48" height="72" viewBox="0 0 48 72" fill="none" xmlns="http://www.w3.org/2000/svg">
<path d="M23.9991 50.5149C22.4829 50.5149 21.2085 49.5224 20.0867 48.6474C19.3174 48.0491 18.5919 47.4842 17.9163 47.3016C17.1935 47.1054 16.2564 47.2284 15.264 47.3594C13.8165 47.5492 12.3199 47.7454 11.0581 47.006C10.2147 46.5125 9.67658 45.7279 9.24643 44.8584L2.01867 66.4411C1.98922 66.5288 2.00886 66.6038 2.07579 66.6644C2.1445 66.7268 2.21947 66.7376 2.30157 66.6987L10.4869 62.8726C11.4944 62.4008 12.6885 62.8121 13.2043 63.8072L17.4032 71.887C17.4451 71.9674 17.5121 72.0045 17.6031 71.9973C17.6941 71.99 17.7539 71.9421 17.7834 71.8563L24.9745 50.3784C24.6604 50.4642 24.3364 50.5158 23.9991 50.5158V50.5149Z" fill="#FF939D"/>
<path d="M45.9803 66.4421L38.7535 44.8594C38.3224 45.7289 37.7834 46.5135 36.9418 47.007C35.6782 47.7464 34.1825 47.5502 32.7358 47.3604C31.7435 47.2293 30.8055 47.1055 30.0836 47.3026C29.408 47.4851 28.6824 48.0501 27.9132 48.6484C27.7472 48.7786 27.5785 48.9096 27.4054 49.0398L24.9905 56.2518L30.2165 71.8572C30.246 71.9431 30.3058 71.9919 30.3968 71.9982C30.486 72.0064 30.553 71.9684 30.5949 71.888L34.7938 63.8064C35.3114 62.8121 36.5054 62.4027 37.5112 62.8736L45.6965 66.6997C45.7786 66.7377 45.8554 66.7277 45.9223 66.6654C45.9893 66.6048 46.0089 66.528 45.9794 66.4421H45.9803Z" fill="#FF939D"/>
<path d="M46.5453 27.1117C47.2932 26.1265 48 25.1964 48 24.307C48 23.4176 47.2941 22.4857 46.5453 21.5023C45.8671 20.6102 45.1674 19.6873 44.8899 18.6361C44.6008 17.5406 44.7534 16.3574 44.8979 15.2131C45.0532 14.0083 45.1996 12.8721 44.7873 12.1508C44.3643 11.4096 43.3058 10.9676 42.1885 10.4985C41.1444 10.0619 40.0654 9.6091 39.2881 8.82182C38.5108 8.03455 38.0637 6.94176 37.6327 5.88423C37.1695 4.75167 36.7322 3.68058 36.0013 3.25214C35.291 2.83636 34.1674 2.98369 32.9778 3.14006C31.8489 3.2883 30.6798 3.44105 29.5982 3.1482C28.5612 2.86709 27.6491 2.15845 26.7683 1.47151C25.7965 0.714966 24.8781 0 23.9991 0C23.1201 0 22.2027 0.714966 21.2299 1.47151C20.3491 2.15845 19.4388 2.86709 18.4 3.1482C17.3193 3.44105 16.1511 3.2883 15.0222 3.14006C13.8326 2.98279 12.709 2.83636 11.9987 3.25214C11.2669 3.68058 10.8305 4.75258 10.3673 5.88423C9.93627 6.94176 9.48916 8.03364 8.71007 8.82182C7.93277 9.6091 6.85383 10.0619 5.81058 10.4985C4.69148 10.9676 3.63485 11.4105 3.21184 12.1508C2.80043 12.8721 2.94679 14.0083 3.10029 15.2131C3.24664 16.3565 3.39925 17.5406 3.1101 18.6361C2.83256 19.6864 2.132 20.6102 1.45465 21.5023C0.706801 22.4866 0 23.4167 0 24.307C0 25.1973 0.705909 26.1265 1.45465 27.1117C2.132 28.0039 2.83256 28.9258 3.1101 29.9779C3.39925 31.0725 3.24664 32.2557 3.10029 33.3991C2.94679 34.604 2.80043 35.7419 3.21184 36.4632C3.63485 37.2026 4.69148 37.6455 5.81058 38.1146C6.85294 38.5512 7.93188 39.004 8.71007 39.7913C9.48916 40.5804 9.93537 41.6732 10.3673 42.7289C10.8305 43.8624 11.2678 44.9335 11.9978 45.361C12.7099 45.7777 13.8335 45.6294 15.0231 45.474C15.6835 45.3863 16.3573 45.2986 17.0194 45.2986C17.4889 45.2986 17.9529 45.342 18.4018 45.464C19.4406 45.7451 20.3509 46.4547 21.2317 47.1407C22.2044 47.8982 23.1227 48.614 24.0009 48.614C24.879 48.614 25.7991 47.8991 26.7701 47.1407C27.6509 46.4547 28.5621 45.7451 29.6 45.464C30.6816 45.1712 31.8498 45.3257 32.9796 45.474C34.1692 45.6312 35.291 45.7777 36.0031 45.361C36.7349 44.9325 37.1713 43.8624 37.6345 42.7289C38.0655 41.6732 38.5126 40.5804 39.2899 39.7913C40.0672 39.004 41.1462 38.5512 42.1903 38.1146C43.3085 37.6455 44.366 37.2026 44.7891 36.4632C45.2005 35.7419 45.0541 34.604 44.8997 33.3991C44.7542 32.2557 44.6025 31.0716 44.8917 29.9779C45.1692 28.9258 45.8689 28.0039 46.5471 27.1117H46.5453ZM34.8492 19.7036L21.0407 33.6892C20.9318 33.7995 20.7882 33.8592 20.6356 33.8592C20.483 33.8592 20.3384 33.7995 20.2295 33.6892L13.1481 26.517C12.925 26.291 12.925 25.9222 13.1481 25.6954L14.9936 23.828C15.1007 23.7177 15.2453 23.658 15.3988 23.658C15.5523 23.658 15.696 23.7177 15.804 23.828L19.9725 28.05C20.3384 28.4206 20.9327 28.4206 21.3004 28.05L32.1951 17.0136C32.304 16.9052 32.4477 16.8437 32.6012 16.8437C32.7547 16.8437 32.8975 16.9043 33.0064 17.0136L34.8501 18.8829C35.075 19.1088 35.075 19.4767 34.8501 19.7045L34.8492 19.7036Z" fill="#FF939D"/>
</svg>
