<svg width="100" height="100" viewBox="0 0 100 100" fill="none" xmlns="http://www.w3.org/2000/svg">
<path d="M100 50C100 77.6143 77.6143 100 50 100C22.3857 100 0 77.6143 0 50C0 22.3857 22.3857 0 50 0C77.6143 0 100 22.3857 100 50ZM44.2165 76.4746L81.3133 39.3778C82.573 38.1181 82.573 36.0756 81.3133 34.8159L76.7514 30.254C75.4917 28.9942 73.4492 28.9942 72.1893 30.254L41.9355 60.5077L27.8107 46.3829C26.551 45.1232 24.5085 45.1232 23.2486 46.3829L18.6867 50.9448C17.427 52.2044 17.427 54.247 18.6867 55.5067L39.6544 76.4744C40.9143 77.7343 42.9567 77.7343 44.2165 76.4746Z" fill="#444444"/>
</svg>
