<svg width="26" height="30" viewBox="0 0 26 30" fill="none" xmlns="http://www.w3.org/2000/svg">
<path d="M21.2263 2.67585L13.395 0.0646003C13.1386 -0.020801 12.8614 -0.020801 12.605 0.0646003L4.77375 2.67585C3.52863 3.08945 2.44552 3.88492 1.67831 4.94924C0.911092 6.01356 0.498798 7.29258 0.500003 8.6046V15.0009C0.500003 24.4546 12 29.6759 12.4925 29.8934C12.6523 29.9643 12.8252 30.001 13 30.001C13.1748 30.001 13.3477 29.9643 13.5075 29.8934C14 29.6759 25.5 24.4546 25.5 15.0009V8.6046C25.5012 7.29258 25.0889 6.01356 24.3217 4.94924C23.5545 3.88492 22.4714 3.08945 21.2263 2.67585V2.67585ZM18.8975 12.1471L13.5575 17.4871C13.339 17.7071 13.0789 17.8815 12.7925 18.0001C12.506 18.1188 12.1988 18.1794 11.8888 18.1784H11.8475C11.5311 18.1735 11.219 18.1045 10.93 17.9756C10.641 17.8467 10.3812 17.6605 10.1663 17.4284L7.28375 14.4284C7.15892 14.3125 7.05906 14.1724 6.99032 14.0166C6.92157 13.8608 6.88539 13.6926 6.88398 13.5223C6.88257 13.3521 6.91597 13.1833 6.98213 13.0264C7.04829 12.8695 7.14581 12.7277 7.26871 12.6098C7.39162 12.492 7.53731 12.4005 7.69685 12.3409C7.85639 12.2814 8.02641 12.2551 8.19649 12.2636C8.36656 12.2721 8.53311 12.3153 8.68589 12.3905C8.83868 12.4657 8.9745 12.5713 9.085 12.7009L11.89 15.6259L17.125 10.3759C17.3608 10.1482 17.6765 10.0222 18.0043 10.025C18.332 10.0279 18.6455 10.1593 18.8773 10.3911C19.109 10.6228 19.2405 10.9364 19.2433 11.2641C19.2462 11.5918 19.1202 11.9076 18.8925 12.1434L18.8975 12.1471Z" fill="#20BB1B"/>
</svg>
