<svg width="56" height="56" viewBox="0 0 56 56" fill="none" xmlns="http://www.w3.org/2000/svg">
<g clip-path="url(#clip0_1265_29892)">
<path d="M28 0C22.4621 0 17.0486 1.64217 12.444 4.71885C7.83947 7.79553 4.25064 12.1685 2.13139 17.2849C0.012132 22.4012 -0.542361 28.0311 0.538025 33.4625C1.61841 38.894 4.28515 43.8831 8.20102 47.799C12.1169 51.7149 17.106 54.3816 22.5375 55.462C27.969 56.5424 33.5988 55.9879 38.7151 53.8686C43.8315 51.7494 48.2045 48.1605 51.2812 43.556C54.3578 38.9514 56 33.5379 56 28C55.992 20.5764 53.0394 13.4592 47.7901 8.20988C42.5409 2.9606 35.4236 0.00802919 28 0V0ZM28 4.66667C33.3818 4.66237 38.5978 6.52808 42.756 9.94467L9.94468 42.756C7.146 39.3396 5.37522 35.1986 4.83845 30.815C4.30168 26.4314 5.02102 21.9855 6.91271 17.9948C8.80441 14.0041 11.7907 10.6327 15.5239 8.27317C19.2571 5.91362 23.5837 4.66293 28 4.66667ZM28 51.3333C22.6182 51.3376 17.4022 49.4719 13.244 46.0553L46.0553 13.244C48.854 16.6604 50.6248 20.8014 51.1616 25.185C51.6983 29.5686 50.979 34.0145 49.0873 38.0052C47.1956 41.996 44.2094 45.3673 40.4762 47.7268C36.743 50.0864 32.4164 51.3371 28 51.3333Z" fill="#FF939D"/>
</g>
<defs>
<clipPath id="clip0_1265_29892">
<rect width="56" height="56" fill="white"/>
</clipPath>
</defs>
</svg>
