<svg width="21" height="21" viewBox="0 0 21 21" fill="none" xmlns="http://www.w3.org/2000/svg">
<path d="M16.625 7.371V6.12499C16.625 2.74226 13.8828 0 10.5 0C7.11722 0 4.375 2.74226 4.375 6.12499V7.371C2.78253 8.06601 1.7523 9.63748 1.75 11.375V16.625C1.75287 19.04 3.70993 20.9971 6.12497 21H14.875C17.29 20.9971 19.2471 19.04 19.25 16.625V11.375C19.2477 9.63748 18.2174 8.06601 16.625 7.371ZM11.375 14.875C11.375 15.3583 10.9832 15.75 10.5 15.75C10.0167 15.75 9.625 15.3583 9.625 14.875V13.125C9.625 12.6418 10.0167 12.25 10.5 12.25C10.9832 12.25 11.375 12.6418 11.375 13.125V14.875ZM14.875 7.00001H6.12497V6.12503C6.12497 3.7088 8.08371 1.75001 10.5 1.75001C12.9163 1.75001 14.875 3.70876 14.875 6.12503V7.00001Z" fill="white"/>
</svg>
