<svg width="22" height="22" viewBox="0 0 22 22" fill="none" xmlns="http://www.w3.org/2000/svg">
<g clip-path="url(#clip0_1265_26612)">
<path d="M9.16667 5.50028H21.0833C21.3264 5.50028 21.5596 5.4037 21.7315 5.23179C21.9034 5.05988 22 4.82673 22 4.58361C22 4.3405 21.9034 4.10734 21.7315 3.93543C21.5596 3.76352 21.3264 3.66695 21.0833 3.66695H9.16667C8.92355 3.66695 8.69039 3.76352 8.51849 3.93543C8.34658 4.10734 8.25 4.3405 8.25 4.58361C8.25 4.82673 8.34658 5.05988 8.51849 5.23179C8.69039 5.4037 8.92355 5.50028 9.16667 5.50028V5.50028Z" fill="#FF939D"/>
<path d="M21.0833 10.0831H9.16667C8.92355 10.0831 8.69039 10.1796 8.51849 10.3515C8.34658 10.5235 8.25 10.7566 8.25 10.9997C8.25 11.2428 8.34658 11.476 8.51849 11.6479C8.69039 11.8198 8.92355 11.9164 9.16667 11.9164H21.0833C21.3264 11.9164 21.5596 11.8198 21.7315 11.6479C21.9034 11.476 22 11.2428 22 10.9997C22 10.7566 21.9034 10.5235 21.7315 10.3515C21.5596 10.1796 21.3264 10.0831 21.0833 10.0831Z" fill="#FF939D"/>
<path d="M21.0833 16.5H9.16667C8.92355 16.5 8.69039 16.5966 8.51849 16.7685C8.34658 16.9404 8.25 17.1736 8.25 17.4167C8.25 17.6598 8.34658 17.8929 8.51849 18.0649C8.69039 18.2368 8.92355 18.3333 9.16667 18.3333H21.0833C21.3264 18.3333 21.5596 18.2368 21.7315 18.0649C21.9034 17.8929 22 17.6598 22 17.4167C22 17.1736 21.9034 16.9404 21.7315 16.7685C21.5596 16.5966 21.3264 16.5 21.0833 16.5Z" fill="#FF939D"/>
<path d="M5.57959 5.50026C5.67028 5.50024 5.75893 5.47331 5.83431 5.42289C5.9097 5.37247 5.96843 5.30082 6.00307 5.21701C6.03771 5.1332 6.04672 5.04099 6.02893 4.95206C6.01115 4.86313 5.96739 4.78147 5.90318 4.71742L3.66651 2.48167C3.49461 2.30983 3.26149 2.21329 3.01843 2.21329C2.77536 2.21329 2.54224 2.30983 2.37034 2.48167L0.134594 4.71742C0.0703846 4.78147 0.0266195 4.86313 0.00883753 4.95206C-0.00894441 5.04099 5.62041e-05 5.1332 0.0347002 5.21701C0.0693442 5.30082 0.128074 5.37247 0.203457 5.42289C0.27884 5.47331 0.367486 5.50024 0.458177 5.50026H2.10268V16.5003H0.458177C0.367408 16.5001 0.278635 16.5269 0.203111 16.5772C0.127588 16.6276 0.0687158 16.6992 0.0339581 16.7831C-0.00079967 16.8669 -0.00987752 16.9592 0.00787537 17.0482C0.0256283 17.1372 0.0694124 17.219 0.133677 17.2831L2.37034 19.5188C2.54224 19.6907 2.77536 19.7872 3.01843 19.7872C3.26149 19.7872 3.49461 19.6907 3.66651 19.5188L5.90318 17.2831C5.96739 17.219 6.01115 17.1374 6.02893 17.0485C6.04672 16.9595 6.03771 16.8673 6.00307 16.7835C5.96843 16.6997 5.9097 16.628 5.83431 16.5776C5.75893 16.5272 5.67028 16.5003 5.57959 16.5003H3.93601V5.50026H5.57959Z" fill="#FF939D"/>
</g>
<defs>
<clipPath id="clip0_1265_26612">
<rect width="22" height="22" fill="white"/>
</clipPath>
</defs>
</svg>
