<svg width="23" height="17" viewBox="0 0 23 17" fill="none" xmlns="http://www.w3.org/2000/svg">
<mask id="mask0_1456_4099" style="mask-type:luminance" maskUnits="userSpaceOnUse" x="0" y="0" width="23" height="17">
<rect width="23" height="17" fill="white"/>
</mask>
<g mask="url(#mask0_1456_4099)">
<path fill-rule="evenodd" clip-rule="evenodd" d="M0 0H23V17H0V0Z" fill="#F7FCFF"/>
<path fill-rule="evenodd" clip-rule="evenodd" d="M0 10.3889V11.8056H23V10.3889H0Z" fill="#E31D1C"/>
<path fill-rule="evenodd" clip-rule="evenodd" d="M0 12.9861V14.4028H23V12.9861H0Z" fill="#E31D1C"/>
<path fill-rule="evenodd" clip-rule="evenodd" d="M0 5.19434V6.611H23V5.19434H0Z" fill="#E31D1C"/>
<path fill-rule="evenodd" clip-rule="evenodd" d="M0 15.5833V16.9999H23V15.5833H0Z" fill="#E31D1C"/>
<path fill-rule="evenodd" clip-rule="evenodd" d="M0 7.79175V9.20841H23V7.79175H0Z" fill="#E31D1C"/>
<path fill-rule="evenodd" clip-rule="evenodd" d="M0 0V1.41667H23V0H0Z" fill="#E31D1C"/>
<path fill-rule="evenodd" clip-rule="evenodd" d="M0 2.59717V4.01383H23V2.59717H0Z" fill="#E31D1C"/>
<rect width="14.375" height="9.20833" fill="#2E42A5"/>
<path d="M1.47534 7.06104H1.99097L1.58569 7.46729L1.74292 8.10889L1.23804 7.74854L0.715576 8.10889L0.892334 7.46729L0.428467 7.06104H1.03394L1.23706 6.5376L1.47534 7.06104ZM4.35034 7.06104H4.86597L4.46069 7.46729L4.61792 8.10889L4.11304 7.74854L3.59058 8.10889L3.76733 7.46729L3.30347 7.06104H3.90894L4.11206 6.5376L4.35034 7.06104ZM7.22534 7.06104H7.74097L7.33569 7.46729L7.49292 8.10889L6.98804 7.74854L6.46558 8.10889L6.64233 7.46729L6.17847 7.06104H6.78394L6.98706 6.5376L7.22534 7.06104ZM10.1003 7.06104H10.616L10.2107 7.46729L10.3679 8.10889L9.86304 7.74854L9.34058 8.10889L9.51733 7.46729L9.05347 7.06104H9.65894L9.86206 6.5376L10.1003 7.06104ZM12.9753 7.06104H13.491L13.0857 7.46729L13.2429 8.10889L12.738 7.74854L12.2156 8.10889L12.3923 7.46729L11.9285 7.06104H12.5339L12.7371 6.5376L12.9753 7.06104ZM2.91284 5.64404H3.42847L3.02319 6.05029L3.18042 6.69189L2.67554 6.33154L2.15308 6.69189L2.32983 6.05029L1.86597 5.64404H2.47144L2.67456 5.12061L2.91284 5.64404ZM5.78784 5.64404H6.30347L5.89819 6.05029L6.05542 6.69189L5.55054 6.33154L5.02808 6.69189L5.20483 6.05029L4.74097 5.64404H5.34644L5.54956 5.12061L5.78784 5.64404ZM8.66284 5.64404H9.17847L8.77319 6.05029L8.93042 6.69189L8.42554 6.33154L7.90308 6.69189L8.07983 6.05029L7.61597 5.64404H8.22144L8.42456 5.12061L8.66284 5.64404ZM11.5378 5.64404H12.0535L11.6482 6.05029L11.8054 6.69189L11.3005 6.33154L10.7781 6.69189L10.9548 6.05029L10.491 5.64404H11.0964L11.2996 5.12061L11.5378 5.64404ZM1.47534 4.22705H1.99097L1.58569 4.63428L1.74292 5.2749L1.23804 4.91455L0.715576 5.2749L0.892334 4.63428L0.428467 4.22705H1.03394L1.23706 3.70361L1.47534 4.22705ZM4.35034 4.22705H4.86597L4.46069 4.63428L4.61792 5.2749L4.11304 4.91455L3.59058 5.2749L3.76733 4.63428L3.30347 4.22705H3.90894L4.11206 3.70361L4.35034 4.22705ZM7.22534 4.22705H7.74097L7.33569 4.63428L7.49292 5.2749L6.98804 4.91455L6.46558 5.2749L6.64233 4.63428L6.17847 4.22705H6.78394L6.98706 3.70361L7.22534 4.22705ZM10.1003 4.22705H10.616L10.2107 4.63428L10.3679 5.2749L9.86304 4.91455L9.34058 5.2749L9.51733 4.63428L9.05347 4.22705H9.65894L9.86206 3.70361L10.1003 4.22705ZM12.9753 4.22705H13.491L13.0857 4.63428L13.2429 5.2749L12.738 4.91455L12.2156 5.2749L12.3923 4.63428L11.9285 4.22705H12.5339L12.7371 3.70361L12.9753 4.22705ZM2.91284 2.81104H3.42847L3.02319 3.21729L3.18042 3.85889L2.67554 3.49854L2.15308 3.85889L2.32983 3.21729L1.86597 2.81104H2.47144L2.67456 2.2876L2.91284 2.81104ZM5.78784 2.81104H6.30347L5.89819 3.21729L6.05542 3.85889L5.55054 3.49854L5.02808 3.85889L5.20483 3.21729L4.74097 2.81104H5.34644L5.54956 2.2876L5.78784 2.81104ZM8.66284 2.81104H9.17847L8.77319 3.21729L8.93042 3.85889L8.42554 3.49854L7.90308 3.85889L8.07983 3.21729L7.61597 2.81104H8.22144L8.42456 2.2876L8.66284 2.81104ZM11.5378 2.81104H12.0535L11.6482 3.21729L11.8054 3.85889L11.3005 3.49854L10.7781 3.85889L10.9548 3.21729L10.491 2.81104H11.0964L11.2996 2.2876L11.5378 2.81104ZM1.47534 1.39404H1.99097L1.58569 1.80029L1.74292 2.44189L1.23804 2.08154L0.715576 2.44189L0.892334 1.80029L0.428467 1.39404H1.03394L1.23706 0.870605L1.47534 1.39404ZM4.35034 1.39404H4.86597L4.46069 1.80029L4.61792 2.44189L4.11304 2.08154L3.59058 2.44189L3.76733 1.80029L3.30347 1.39404H3.90894L4.11206 0.870605L4.35034 1.39404ZM7.22534 1.39404H7.74097L7.33569 1.80029L7.49292 2.44189L6.98804 2.08154L6.46558 2.44189L6.64233 1.80029L6.17847 1.39404H6.78394L6.98706 0.870605L7.22534 1.39404ZM10.1003 1.39404H10.616L10.2107 1.80029L10.3679 2.44189L9.86304 2.08154L9.34058 2.44189L9.51733 1.80029L9.05347 1.39404H9.65894L9.86206 0.870605L10.1003 1.39404ZM12.9753 1.39404H13.491L13.0857 1.80029L13.2429 2.44189L12.738 2.08154L12.2156 2.44189L12.3923 1.80029L11.9285 1.39404H12.5339L12.7371 0.870605L12.9753 1.39404Z" fill="#F7FCFF"/>
</g>
</svg>
