<svg width="70" height="62" viewBox="0 0 70 62" fill="none" xmlns="http://www.w3.org/2000/svg">
<path d="M32.2198 0.839601C20.6599 3.56 12.2406 12.3502 9.65189 22.8983C9.39535 24.0274 9.20877 25.1565 9.09994 26.2931C9.08439 26.4447 9.03775 26.5963 8.97555 26.7402C8.62572 30.0214 8.82785 33.4162 9.66744 36.8034C10.6392 40.7135 12.3572 44.2599 14.6428 47.3213C15.4824 47.7078 16.3764 48.0412 17.3171 48.2988C14.3396 44.9343 12.2018 40.903 11.1056 36.4624C9.27874 29.0969 10.507 21.4813 14.5651 15.0175C14.6584 14.866 14.7594 14.722 14.8605 14.5704C14.8372 14.8963 14.7983 15.2145 14.6817 15.5101C14.4096 16.2224 13.7721 16.6316 13.4689 17.306C13.1968 17.9198 13.0725 18.7912 13.0647 19.4126C13.0647 20.087 13.3523 20.8372 13.2746 21.5192C13.1813 22.3906 12.7693 22.9968 13.1036 23.9062C14.3318 23.9668 13.3445 22.0951 14.2852 21.7617C14.775 22.4361 14.9149 23.8607 15.0315 24.6943C15.187 25.8385 15.0315 26.1643 15.9488 26.96C16.6796 27.5889 16.9828 28.0588 18.0556 27.9299C19.0429 27.8163 19.5482 28.1421 20.1701 28.9529C20.9475 28.9302 21.4217 28.9529 21.7172 29.7259C22.0825 29.8244 22.8211 30.2411 23.1864 30.2487C23.7073 30.2563 24.3603 29.3849 24.9511 29.8016C25.9384 30.4988 24.7568 33.1964 24.6402 34.0603C24.4692 35.3258 24.819 37.0383 26.1483 37.6067C26.8325 37.8946 27.4932 37.9553 27.8742 38.6827C28.224 39.3571 28.2396 39.9861 28.7293 40.5847C29.4989 41.5168 30.7428 41.6001 31.769 42.2064C32.4375 42.608 32.8418 43.1536 33.1216 43.7825L42.1939 43.6613C42.1939 43.3809 42.2172 43.1081 42.3027 42.8505C42.5748 42.0624 43.189 41.9108 43.6943 41.3198C44.3473 40.5544 43.8653 40.0164 43.8109 39.1828C43.7254 37.7961 43.9819 36.1821 44.5805 34.9166C45.3346 33.3253 45.5212 32.0825 43.8809 31.1126C43.0724 30.6352 42.777 30.8777 41.8518 30.8625C41.1522 30.8474 40.437 30.5215 39.7529 30.5973C39.3408 30.6428 39.1387 30.8398 38.7422 30.8322C38.3769 30.8322 38.3691 30.6124 38.0115 30.7034C37.4751 30.8398 36.9931 32.1053 36.3634 31.5142C36.0136 31.1808 36.5189 29.9305 36.3478 29.4152C36.1457 28.7862 35.6404 27.8011 34.9097 27.5965C34.6298 27.5207 34.0856 27.6268 33.7591 27.5889C33.3782 27.5435 32.9817 27.4071 32.6163 27.2858C32.1421 27.1267 31.2403 26.8615 30.9449 26.4523C30.4396 26.5508 30.0276 26.3613 29.5145 26.4902C29.0558 26.6038 28.7993 26.8842 28.294 26.9448C27.8431 26.9979 27.2911 26.7781 26.8402 26.9448C26.537 27.0585 26.1717 27.5662 25.9384 27.7784C25.3165 28.3391 24.6324 28.809 23.8706 29.1348C22.6967 29.6501 22.3702 29.2409 22.1681 28.1194L21.896 27.8087C22.0437 26.4674 21.2041 26.5735 20.2245 26.4902C19.8825 25.6415 20.8387 24.7549 20.1313 23.8986C19.1828 24.0729 18.7941 26.8842 17.7291 25.9597C17.0217 25.3459 17.3093 23.1029 17.6203 22.3755C17.9312 21.6404 19.3383 20.1097 20.1079 19.8218C20.7065 19.602 21.3129 19.7384 21.6861 20.2082C22.0903 20.7235 21.8804 21.3449 22.1214 21.9814C22.8677 21.6177 22.4246 20.6856 22.2536 20.1628C21.9815 19.2989 22.4635 19.2535 22.7667 18.5108C23.0387 17.8364 22.9455 17.162 23.3264 16.48C23.6218 15.9496 23.9872 15.3812 24.337 14.8735C24.7335 14.2976 25.3165 14.2067 25.7596 13.7445C26.4282 13.0473 25.1377 12.3426 26.3271 12.138C26.7469 12.0622 26.607 12.3653 27.1279 12.1152C27.3455 12.0092 27.7265 11.6985 27.9519 11.5393C28.9625 10.8346 28.1385 10.9028 27.4855 10.4481C26.6537 9.87224 27.6099 9.78131 28.2551 9.50851C28.7293 9.31149 28.5894 9.18267 29.0869 9.35695C29.53 9.51609 29.3901 9.90255 29.9421 9.75099C30.9916 9.47062 30.0043 8.60676 29.6855 8.31881C29.1336 7.82625 28.9314 7.43979 28.0763 7.62166C28.0918 7.34128 28.0141 6.98513 27.8353 6.76538C27.1434 7.02302 26.8947 6.54562 26.2961 6.47742C25.301 6.35618 25.6275 7.05333 25.3787 7.63681C25.1222 8.24303 24.3603 8.32638 24.2359 9.01596C24.1038 9.73584 24.508 10.1678 23.3886 10.2435C23.4352 9.81919 23.2642 9.32664 23.132 8.91745C22.8133 8.95534 22.5101 8.94018 22.1914 8.91745C21.9348 7.87172 23.1009 7.50041 23.8861 7.21246C24.7646 6.88662 24.8345 5.92425 25.6119 5.57567C26.3349 5.25741 27.1667 6.31829 27.9286 5.40896C28.3639 4.8861 28.0608 4.71939 27.7731 4.38597C27.6954 4.29504 27.3689 4.12833 27.2756 4.05255C27.2678 4.04497 27.26 4.0374 27.2523 4.02224C27.9364 3.71913 28.6438 3.43876 29.359 3.18869C29.5922 3.54485 30.012 3.95404 30.2452 4.18137C30.4163 4.35566 30.6728 4.43144 30.8205 4.62846C30.9916 4.84821 30.8128 5.21952 31.1781 5.31045C31.7379 5.45443 32.7718 3.4236 33.0517 3.06745C33.4093 2.61279 33.6347 2.36272 33.4481 2.05204C35.7959 1.57464 38.1592 1.37762 40.4992 1.46097C40.7246 1.63526 40.9578 1.80955 41.1988 2.01415C41.7119 2.44608 42.0773 2.86285 42.8314 2.93105C43.2667 2.96894 44.5494 2.6431 44.2385 3.66609C43.9508 4.60573 43.1346 3.65093 42.8236 3.45391C42.3883 3.17354 41.2688 3.01441 41.5098 3.8328C41.8596 5.05281 44.666 4.18895 44.3862 5.68176C44.7749 5.79543 45.529 5.96214 45.5367 6.47742C45.5445 7.10637 44.6505 6.91693 44.8604 7.6747C45.148 8.75074 46.5862 9.35695 47.6202 8.70527C48.7163 8.00812 47.4103 6.59109 48.7474 6.09854C49.276 5.90909 49.6336 5.98487 50.2089 6.24251C50.6831 6.45469 51.1107 7.09122 51.6393 6.90935C51.616 6.56835 51.2973 6.38649 51.1807 6.09854C51.6316 6.09854 52.6033 6.4168 52.9376 6.71991C53.4351 7.17457 53.5906 7.97023 54.3214 7.05333C54.1581 6.97755 54.0337 6.75022 53.9404 6.68202C55.091 6.4168 56.0005 6.68202 56.7391 7.54588C58.3794 9.45546 55.2465 8.37185 55.3942 9.53124C54.679 9.4782 54.2514 9.03111 53.5984 8.84925C53.2874 8.76589 52.7977 8.96291 52.5567 8.8644C52.2146 8.728 52.1913 8.33396 51.8881 8.18999C50.6909 7.62923 48.7318 9.45546 47.9389 10.1829C47.7212 10.3799 47.4647 10.4557 47.3558 10.7588C47.177 11.2741 47.6124 11.2968 47.6279 11.7364C47.6435 12.3653 46.9127 12.8351 46.7883 13.3731C46.4929 14.6614 48.0866 16.0405 48.2421 17.359C48.3276 18.0941 47.7368 19.0489 48.1799 19.5717C48.3742 19.799 48.8796 19.9127 49.1283 20.1704C49.3538 20.4053 49.5093 20.7538 49.7891 20.9887C50.6909 21.7541 51.9114 22.5498 52.9143 23.2242C53.4818 23.6106 54.127 23.6031 54.7723 23.3075C55.3009 23.065 56.1094 22.6786 56.5603 22.3224C57.1744 21.8375 57.1511 21.3601 57.9518 21.4965C58.5893 21.6025 59.2812 22.2012 59.802 21.451C60.4939 21.8526 60.1052 22.9211 60.1208 23.5349C60.1519 24.3305 60.6183 24.914 61.2558 25.4444C62.0176 26.081 62.1887 26.1871 62.3286 27.2479C62.4374 28.0739 62.4063 28.862 62.4297 29.6955C62.4452 30.4988 62.0954 31.1959 62.3208 31.9916C62.5307 32.7342 63.0127 33.2495 63.106 34.0755C63.1915 34.8029 63.3548 35.6516 63.3392 36.3867C63.3237 37.1369 62.9661 37.8871 62.9272 38.66C62.8961 39.395 63.1682 40.274 63.8057 40.7211C64.4664 41.1909 64.894 40.7363 65.3838 40.1452C66.3555 38.9858 66.5266 37.3642 67.0241 36.0002C67.5294 34.5983 68.0658 33.3025 68.299 31.9234C68.3457 31.6279 68.4234 31.3323 68.4934 31.0444C68.2913 35.7956 66.8608 40.4407 64.241 44.6085C60.1907 51.0723 53.7927 55.6113 46.2364 57.3921C44.2851 57.8468 42.3261 58.1044 40.367 58.1726L38.6956 59.6199C41.2921 59.6806 43.9431 59.4153 46.5862 58.794C63.0049 54.9293 73.1034 38.8267 69.1386 22.8301C65.1583 6.81842 48.6386 -3.02503 32.2198 0.839601ZM26.8869 45.442L53.0775 45.0859L33.6969 61.8175C33.316 62.1509 32.9662 62.0145 32.9195 61.5144L32.523 57.1496C26.3116 58.4606 20.0147 58.256 14.775 56.5434C7.94161 54.3913 2.90405 49.7613 0.983872 44.1387C-1.01405 38.5387 0.0898606 31.984 3.75919 26.4144C5.04968 24.4139 6.6589 22.5498 8.50134 20.8599C8.0038 22.5801 7.65397 24.3533 7.48294 26.1567C7.27305 26.5205 7.07092 26.8842 6.89212 27.2555C4.31892 32.3174 4.24896 37.6976 6.50342 41.9108C8.70346 46.1619 13.1502 49.1475 18.4521 50.2084C21.8027 50.9056 26.1173 50.5873 29.6156 49.8295L26.537 46.1619C26.2105 45.7755 26.366 45.4572 26.8791 45.4496L26.8869 45.442Z" fill="#FF939D"/>
</svg>
