<svg width="68" height="68" viewBox="0 0 68 68" fill="none" xmlns="http://www.w3.org/2000/svg">
<path d="M14.1668 62.3327C15.6697 62.3327 17.111 61.7357 18.1737 60.673C19.2365 59.6102 19.8335 58.1689 19.8335 56.666V39.666C19.8335 38.1631 19.2365 36.7218 18.1737 35.6591C17.111 34.5964 15.6697 33.9994 14.1668 33.9994V31.166C14.1668 25.9059 16.2564 20.8612 19.9759 17.1417C23.6953 13.4223 28.74 11.3327 34.0001 11.3327C39.2603 11.3327 44.305 13.4223 48.0244 17.1417C51.7439 20.8612 53.8335 25.9059 53.8335 31.166V33.9994C52.3306 33.9994 50.8892 34.5964 49.8265 35.6591C48.7638 36.7218 48.1668 38.1631 48.1668 39.666V56.666H39.6668C38.9154 56.666 38.1947 56.9645 37.6633 57.4959C37.132 58.0272 36.8335 58.7479 36.8335 59.4994C36.8335 60.2508 37.132 60.9715 37.6633 61.5028C38.1947 62.0342 38.9154 62.3327 39.6668 62.3327H53.8335C57.0805 62.323 60.2257 61.1981 62.7424 59.1465C65.2592 57.0948 66.9947 54.2408 67.6586 51.0624C68.3224 47.8839 67.8742 44.5739 66.3891 41.6864C64.9039 38.7989 62.4719 36.5092 59.5001 35.2007V31.166C59.5001 24.403 56.8135 17.917 52.0314 13.1348C47.2492 8.35262 40.7632 5.66602 34.0001 5.66602C27.2371 5.66602 20.7511 8.35262 15.9689 13.1348C11.1867 17.917 8.50014 24.403 8.50014 31.166V35.2007C5.52843 36.5092 3.09641 38.7989 1.61124 41.6864C0.126066 44.5739 -0.322116 47.8839 0.341725 51.0624C1.00557 54.2408 2.74113 57.0948 5.25788 59.1465C7.77462 61.1981 10.9198 62.323 14.1668 62.3327Z" fill="#FF939D"/>
</svg>
