<svg width="60" height="60" viewBox="0 0 60 60" fill="none" xmlns="http://www.w3.org/2000/svg">
<g clip-path="url(#clip0_1247_13025)">
<path d="M43.7499 4.7915C40.9348 4.83529 38.181 5.62114 35.7668 7.06968C33.3526 8.51823 31.3633 10.5782 29.9999 13.0415C28.6365 10.5782 26.6472 8.51823 24.233 7.06968C21.8187 5.62114 19.065 4.83529 16.2499 4.7915C11.7622 4.98648 7.53416 6.94964 4.48935 10.2521C1.44454 13.5545 -0.169481 17.9278 -0.000104273 22.4165C-0.000104273 33.784 11.9649 46.199 21.9999 54.6165C24.2404 56.4993 27.0733 57.5316 29.9999 57.5316C32.9265 57.5316 35.7593 56.4993 37.9999 54.6165C48.0349 46.199 59.9999 33.784 59.9999 22.4165C60.1693 17.9278 58.5552 13.5545 55.5104 10.2521C52.4656 6.94964 48.2375 4.98648 43.7499 4.7915Z" fill="#FF939D"/>
</g>
<defs>
<clipPath id="clip0_1247_13025">
<rect width="60" height="60" fill="white"/>
</clipPath>
</defs>
</svg>
