<svg width="78" height="61" viewBox="0 0 78 61" fill="none" xmlns="http://www.w3.org/2000/svg">
<path d="M25.2281 30.7996C25.2281 32.4607 23.9146 33.727 22.249 33.727C21.0031 33.727 20.0823 33.019 20.0823 31.6846C20.0823 30.0234 21.3687 28.6891 23.0208 28.6891C24.2802 28.6891 25.2281 29.4652 25.2281 30.7996ZM10.901 24.1958H10.2646C10.0615 24.1958 9.85833 24.3319 9.83125 24.5634L9.24896 28.1989L10.3594 28.158C11.849 28.158 13 27.9538 13.2708 26.2246C13.5823 24.4 12.4312 24.1958 10.901 24.1958ZM49.3594 24.1958H48.75C48.5062 24.1958 48.3437 24.3319 48.3167 24.5634L47.7479 28.1989L48.8312 28.158C50.5917 28.158 51.8104 27.7496 51.8104 25.7071C51.7969 24.2638 50.5104 24.1958 49.3594 24.1958ZM78 6.53571V54.4643C78 58.0725 75.0885 61 71.5 61H6.5C2.91146 61 0 58.0725 0 54.4643V6.53571C0 2.92746 2.91146 0 6.5 0H71.5C75.0885 0 78 2.92746 78 6.53571ZM17.374 24.9719C17.374 22.1125 15.1802 21.1594 12.675 21.1594H7.25833C6.91979 21.1594 6.58125 21.4317 6.55417 21.7993L4.33333 35.7013C4.29271 35.9737 4.49583 36.246 4.76667 36.246H7.33958C7.70521 36.246 8.04375 35.8511 8.08438 35.4699L8.69375 31.848C8.82917 30.8676 10.4812 31.208 11.1312 31.208C15.0042 31.208 17.374 28.8933 17.374 24.9719ZM28.776 26.1701H26.2031C25.6885 26.1701 25.6615 26.919 25.6344 27.2866C24.849 26.1292 23.7115 25.925 22.425 25.925C19.1073 25.925 16.575 28.8525 16.575 32.0795C16.575 34.7346 18.2271 36.4638 20.8677 36.4638C22.0865 36.4638 23.6031 35.7967 24.4562 34.8435C24.3885 35.0478 24.3208 35.4835 24.3208 35.6877C24.3208 36.0009 24.4562 36.2324 24.7542 36.2324H27.0833C27.449 36.2324 27.7604 35.8375 27.8281 35.4563L29.2094 26.7011C29.25 26.4424 29.0469 26.1701 28.776 26.1701ZM34.2604 39.5002L42.8865 26.8917C42.9542 26.8237 42.9542 26.7556 42.9542 26.6603C42.9542 26.4288 42.751 26.1837 42.5208 26.1837H39.9208C39.6906 26.1837 39.4469 26.3199 39.3115 26.5241L35.7229 31.8344L34.2333 26.7284C34.125 26.4288 33.8271 26.1837 33.4885 26.1837H30.9563C30.726 26.1837 30.5229 26.4288 30.5229 26.6603C30.5229 26.8237 33.1635 34.3942 33.3938 35.1159C33.0281 35.6333 30.6177 39.0101 30.6177 39.4185C30.6177 39.6636 30.8208 39.8542 31.051 39.8542H33.651C33.8948 39.8406 34.125 39.7045 34.2604 39.5002ZM55.8323 24.9719C55.8323 22.1125 53.6385 21.1594 51.1333 21.1594H45.7573C45.3917 21.1594 45.0531 21.4317 45.0125 21.7993L42.8187 35.6877C42.7917 35.96 42.9948 36.2324 43.2521 36.2324H46.0281C46.299 36.2324 46.5021 36.0281 46.5698 35.7967L47.1792 31.848C47.3146 30.8676 48.9667 31.208 49.6167 31.208C53.4625 31.208 55.8323 28.8933 55.8323 24.9719ZM67.2344 26.1701H64.6615C64.1469 26.1701 64.1198 26.919 64.0792 27.2866C63.3344 26.1292 62.1833 25.925 60.8698 25.925C57.5521 25.925 55.0198 28.8525 55.0198 32.0795C55.0198 34.7346 56.6719 36.4638 59.3125 36.4638C60.5719 36.4638 62.0885 35.7967 62.901 34.8435C62.8604 35.0478 62.7656 35.4835 62.7656 35.6877C62.7656 36.0009 62.901 36.2324 63.199 36.2324H65.5417C65.9073 36.2324 66.2187 35.8375 66.2865 35.4563L67.6677 26.7011C67.7083 26.4424 67.5052 26.1701 67.2344 26.1701ZM73.6667 21.6359C73.6667 21.3636 73.4635 21.1594 73.2333 21.1594H70.7281C70.525 21.1594 70.3219 21.3228 70.2948 21.527L68.101 35.6877L68.0604 35.7558C68.0604 36.0009 68.2635 36.2324 68.5344 36.2324H70.7687C71.1073 36.2324 71.4458 35.8375 71.4729 35.4563L73.6667 21.6768V21.6359ZM61.4792 28.6891C59.8271 28.6891 58.5406 30.0098 58.5406 31.6846C58.5406 33.0054 59.4885 33.727 60.7344 33.727C62.3594 33.727 63.6729 32.4743 63.6729 30.7996C63.6865 29.4652 62.7385 28.6891 61.4792 28.6891Z" fill="#FF939D"/>
</svg>
