<svg width="25" height="24" viewBox="0 0 25 24" fill="none" xmlns="http://www.w3.org/2000/svg">
<path d="M23.8862 22.2937L17.958 16.3247C19.5735 14.3353 20.3678 11.7968 20.1765 9.23427C19.9853 6.67174 18.8232 4.28124 16.9306 2.55723C15.038 0.833216 12.5597 -0.0924026 10.0083 -0.0281708C7.45687 0.036061 5.02759 1.08523 3.22291 2.90232C1.41823 4.71941 0.37623 7.1654 0.312437 9.73435C0.248644 12.3033 1.16794 14.7987 2.88017 16.7043C4.59241 18.6099 6.96658 19.78 9.51161 19.9726C12.0566 20.1651 14.5778 19.3653 16.5536 17.7387L22.4818 23.7077C22.6692 23.8899 22.92 23.9907 23.1804 23.9884C23.4408 23.9861 23.6899 23.8809 23.8741 23.6955C24.0582 23.5101 24.1627 23.2593 24.1649 22.9971C24.1672 22.7349 24.0671 22.4823 23.8862 22.2937ZM10.2728 18.0007C8.70137 18.0007 7.16521 17.5315 5.85861 16.6525C4.552 15.7734 3.53362 14.524 2.93226 13.0622C2.33089 11.6004 2.17355 9.99183 2.48012 8.43998C2.7867 6.88814 3.54342 5.46267 4.6546 4.34385C5.76577 3.22503 7.1815 2.4631 8.72275 2.15442C10.264 1.84574 11.8615 2.00417 13.3134 2.60967C14.7652 3.21517 16.0061 4.24055 16.8791 5.55614C17.7522 6.87174 18.2182 8.41846 18.2182 10.0007C18.2158 12.1217 17.3779 14.1552 15.8884 15.6549C14.3989 17.1547 12.3793 17.9983 10.2728 18.0007Z" fill="#FF5B6B"/>
</svg>
